  0
SECTION
  2
HEADER
  9
$ACADVER
  1
AC1009
  9
$FILLMODE
 70
0
  9
$EXTMIN
 10
7.0252
 20
8.0365
 30
0.0000
  9
$EXTMAX
 10
67.3750
 20
88.2248
 30
0.0000
  0
ENDSEC
  0
SECTION
  2
TABLES
  0
TABLE
  2
LTYPE
 70
1
  0
LTYPE
  2
CONTINUOUS
 70
64
  3
Solid line
 72
65
 73
0
 40
0
  0
ENDTAB
  0
TABLE
  2
LAYER
 70
255
  0
LAYER
  2
1
 70
64
 62
12
  6
CONTINUOUS
  0
LAYER
  2
16
 70
64
 62
132
  6
CONTINUOUS
  0
LAYER
  2
17
 70
64
 62
110
  6
CONTINUOUS
  0
LAYER
  2
20
 70
64
 62
31
  6
CONTINUOUS
  0
LAYER
  2
44
 70
64
 62
253
  6
CONTINUOUS
  0
LAYER
  2
45
 70
64
 62
253
  6
CONTINUOUS
  0
ENDTAB
  0
ENDSEC
  0
SECTION
  2
BLOCKS
  0
BLOCK
  8
0
  2
RECT
 70
64
 10
0.0000
 20
0.0000
 30
0.0000
  3
RECT
  0
SOLID
  8
0
 10
-0.5000
 20
-0.5000
 30
0.0000
 11
0.5000
 21
-0.5000
 31
0.0000
 12
-0.5000
 22
0.5000
 32
0.0000
 13
0.5000
 23
0.5000
 33
0.0000
  0
ENDBLK
  8
0
  0
BLOCK
  8
0
  2
PIE
 70
64
 10
0.0000
 20
0.0000
 30
0.0000
  3
PIE
  0
CIRCLE
  8
0
 10
0.0000
 20
0.0000
 30
0.0000
 40
0.5000
  0
ENDBLK
  8
0
  0
BLOCK
  8
0
  2
OCTAGONP
 70
64
 10
0.0000
 20
0.0000
 30
0.0000
  3
OCTAGONP
  0
POLYLINE
  8
0
 66
1
 10
0.0000
 20
0.0000
 30
0.0000
 40
0.0000
 41
0.0000
 70
1
  0
VERTEX
  8
0
 10
-0.5000
 20
-0.2071
 30
0.0000
  0
VERTEX
  8
0
 10
-0.5000
 20
0.2071
 30
0.0000
  0
VERTEX
  8
0
 10
-0.2071
 20
0.5000
 30
0.0000
  0
VERTEX
  8
0
 10
0.2071
 20
0.5000
 30
0.0000
  0
VERTEX
  8
0
 10
0.5000
 20
0.2071
 30
0.0000
  0
VERTEX
  8
0
 10
0.5000
 20
-0.2071
 30
0.0000
  0
VERTEX
  8
0
 10
0.2071
 20
-0.5000
 30
0.0000
  0
VERTEX
  8
0
 10
-0.2071
 20
-0.5000
 30
0.0000
  0
SEQEND
  8
0
  0
ENDBLK
  8
0
  0
BLOCK
  8
0
  2
SQUAREP
 70
64
 10
0.0000
 20
0.0000
 30
0.0000
  3
SQUAREP
  0
SOLID
  8
0
 10
-0.5000
 20
-0.5000
 30
0.0000
 11
0.5000
 21
-0.5000
 31
0.0000
 12
-0.5000
 22
0.5000
 32
0.0000
 13
0.5000
 23
0.5000
 33
0.0000
  0
ENDBLK
  8
0
  0
BLOCK
  8
0
  2
ROUNDP
 70
64
 10
0.0000
 20
0.0000
 30
0.0000
  3
ROUNDP
  0
CIRCLE
  8
0
 10
0.0000
 20
0.0000
 30
0.0000
 40
0.5000
  0
ENDBLK
  8
0
  0
BLOCK
  8
0
  2
ANNULUSP
 70
64
 10
0.0000
 20
0.0000
 30
0.0000
  3
ANNULUSP
  0
CIRCLE
  8
0
 10
0.0000
 20
0.0000
 30
0.0000
 40
0.5000
  0
ENDBLK
  8
0
  0
BLOCK
  8
0
  2
THERMALP
 70
64
 10
0.0000
 20
0.0000
 30
0.0000
  3
THERMALP
  0
POLYLINE
  8
0
 66
1
 10
0.0000
 20
0.0000
 30
0.0000
 40
0.0000
 41
0.0000
 70
1
  0
VERTEX
  8
0
 10
-0.2379
 20
0.4000
 30
0.0000
  0
VERTEX
  8
0
 10
0.2379
 20
0.4000
 30
0.0000
 42
1.0000
  0
VERTEX
  8
0
 10
0.2379
 20
0.5000
 30
0.0000
  0
VERTEX
  8
0
 10
-0.2379
 20
0.5000
 30
0.0000
 42
1.0000
  0
SEQEND
  8
0
  0
POLYLINE
  8
0
 66
1
 10
0.0000
 20
0.0000
 30
0.0000
 40
0.0000
 41
0.0000
 70
1
  0
VERTEX
  8
0
 10
0.4000
 20
0.2379
 30
0.0000
  0
VERTEX
  8
0
 10
0.4000
 20
-0.2379
 30
0.0000
 42
1.0000
  0
VERTEX
  8
0
 10
0.5000
 20
-0.2379
 30
0.0000
  0
VERTEX
  8
0
 10
0.5000
 20
0.2379
 30
0.0000
 42
1.0000
  0
SEQEND
  8
0
  0
POLYLINE
  8
0
 66
1
 10
0.0000
 20
0.0000
 30
0.0000
 40
0.0000
 41
0.0000
 70
1
  0
VERTEX
  8
0
 10
0.2379
 20
-0.4000
 30
0.0000
  0
VERTEX
  8
0
 10
-0.2379
 20
-0.4000
 30
0.0000
 42
1.0000
  0
VERTEX
  8
0
 10
-0.2379
 20
-0.5000
 30
0.0000
  0
VERTEX
  8
0
 10
0.2379
 20
-0.5000
 30
0.0000
 42
1.0000
  0
SEQEND
  8
0
  0
POLYLINE
  8
0
 66
1
 10
0.0000
 20
0.0000
 30
0.0000
 40
0.0000
 41
0.0000
 70
1
  0
VERTEX
  8
0
 10
-0.4000
 20
-0.2379
 30
0.0000
  0
VERTEX
  8
0
 10
-0.4000
 20
0.2379
 30
0.0000
 42
1.0000
  0
VERTEX
  8
0
 10
-0.5000
 20
0.2379
 30
0.0000
  0
VERTEX
  8
0
 10
-0.5000
 20
-0.2379
 30
0.0000
 42
1.0000
  0
SEQEND
  8
0
  0
ENDBLK
  8
0
  0
BLOCK
  8
0
  2
OCTAGONV
 70
64
 10
0.0000
 20
0.0000
 30
0.0000
  3
OCTAGONV
  0
POLYLINE
  8
0
 66
1
 10
0.0000
 20
0.0000
 30
0.0000
 40
0.0000
 41
0.0000
 70
1
  0
VERTEX
  8
0
 10
-0.5000
 20
-0.2071
 30
0.0000
  0
VERTEX
  8
0
 10
-0.5000
 20
0.2071
 30
0.0000
  0
VERTEX
  8
0
 10
-0.2071
 20
0.5000
 30
0.0000
  0
VERTEX
  8
0
 10
0.2071
 20
0.5000
 30
0.0000
  0
VERTEX
  8
0
 10
0.5000
 20
0.2071
 30
0.0000
  0
VERTEX
  8
0
 10
0.5000
 20
-0.2071
 30
0.0000
  0
VERTEX
  8
0
 10
0.2071
 20
-0.5000
 30
0.0000
  0
VERTEX
  8
0
 10
-0.2071
 20
-0.5000
 30
0.0000
  0
SEQEND
  8
0
  0
ENDBLK
  8
0
  0
BLOCK
  8
0
  2
SQUAREV
 70
64
 10
0.0000
 20
0.0000
 30
0.0000
  3
SQUAREV
  0
SOLID
  8
0
 10
-0.5000
 20
-0.5000
 30
0.0000
 11
0.5000
 21
-0.5000
 31
0.0000
 12
-0.5000
 22
0.5000
 32
0.0000
 13
0.5000
 23
0.5000
 33
0.0000
  0
ENDBLK
  8
0
  0
BLOCK
  8
0
  2
ROUNDV
 70
64
 10
0.0000
 20
0.0000
 30
0.0000
  3
ROUNDV
  0
CIRCLE
  8
0
 10
0.0000
 20
0.0000
 30
0.0000
 40
0.5000
  0
ENDBLK
  8
0
  0
BLOCK
  8
0
  2
ANNULUSV
 70
64
 10
0.0000
 20
0.0000
 30
0.0000
  3
ANNULUSV
  0
CIRCLE
  8
0
 10
0.0000
 20
0.0000
 30
0.0000
 40
0.5000
  0
ENDBLK
  8
0
  0
BLOCK
  8
0
  2
THERMALV
 70
64
 10
0.0000
 20
0.0000
 30
0.0000
  3
THERMALV
  0
POLYLINE
  8
0
 66
1
 10
0.0000
 20
0.0000
 30
0.0000
 40
0.0000
 41
0.0000
 70
1
  0
VERTEX
  8
0
 10
-0.2379
 20
0.4000
 30
0.0000
  0
VERTEX
  8
0
 10
0.2379
 20
0.4000
 30
0.0000
 42
1.0000
  0
VERTEX
  8
0
 10
0.2379
 20
0.5000
 30
0.0000
  0
VERTEX
  8
0
 10
-0.2379
 20
0.5000
 30
0.0000
 42
1.0000
  0
SEQEND
  8
0
  0
POLYLINE
  8
0
 66
1
 10
0.0000
 20
0.0000
 30
0.0000
 40
0.0000
 41
0.0000
 70
1
  0
VERTEX
  8
0
 10
0.4000
 20
0.2379
 30
0.0000
  0
VERTEX
  8
0
 10
0.4000
 20
-0.2379
 30
0.0000
 42
1.0000
  0
VERTEX
  8
0
 10
0.5000
 20
-0.2379
 30
0.0000
  0
VERTEX
  8
0
 10
0.5000
 20
0.2379
 30
0.0000
 42
1.0000
  0
SEQEND
  8
0
  0
POLYLINE
  8
0
 66
1
 10
0.0000
 20
0.0000
 30
0.0000
 40
0.0000
 41
0.0000
 70
1
  0
VERTEX
  8
0
 10
0.2379
 20
-0.4000
 30
0.0000
  0
VERTEX
  8
0
 10
-0.2379
 20
-0.4000
 30
0.0000
 42
1.0000
  0
VERTEX
  8
0
 10
-0.2379
 20
-0.5000
 30
0.0000
  0
VERTEX
  8
0
 10
0.2379
 20
-0.5000
 30
0.0000
 42
1.0000
  0
SEQEND
  8
0
  0
POLYLINE
  8
0
 66
1
 10
0.0000
 20
0.0000
 30
0.0000
 40
0.0000
 41
0.0000
 70
1
  0
VERTEX
  8
0
 10
-0.4000
 20
-0.2379
 30
0.0000
  0
VERTEX
  8
0
 10
-0.4000
 20
0.2379
 30
0.0000
 42
1.0000
  0
VERTEX
  8
0
 10
-0.5000
 20
0.2379
 30
0.0000
  0
VERTEX
  8
0
 10
-0.5000
 20
-0.2379
 30
0.0000
 42
1.0000
  0
SEQEND
  8
0
  0
ENDBLK
  8
0
  0
BLOCK
  8
0
  2
LONGP100
 70
64
 10
0.0000
 20
0.0000
 30
0.0000
  3
LONGP100
  0
POLYLINE
  8
0
 66
1
 10
0.0000
 20
0.0000
 30
0.0000
 40
0.0000
 41
0.0000
 70
1
  0
VERTEX
  8
0
 10
-0.5000
 20
-0.5000
 30
0.0000
  0
VERTEX
  8
0
 10
0.5000
 20
-0.5000
 30
0.0000
 42
1.0000
  0
VERTEX
  8
0
 10
0.5000
 20
0.5000
 30
0.0000
  0
VERTEX
  8
0
 10
-0.5000
 20
0.5000
 30
0.0000
 42
1.0000
  0
SEQEND
  8
0
  0
ENDBLK
  8
0
  0
ENDSEC
  0
SECTION
  2
ENTITIES
  0
LINE
  8
20
 10
12.7000
 20
8.8900
 30
0.0000
 11
67.2900
 21
8.8900
 31
0.0000
  0
LINE
  8
20
 10
67.2900
 20
8.8900
 30
0.0000
 11
67.2900
 21
82.2200
 31
0.0000
  0
LINE
  8
20
 10
67.2900
 20
82.2200
 30
0.0000
 11
12.7000
 21
82.2200
 31
0.0000
  0
LINE
  8
20
 10
12.7000
 20
82.2200
 30
0.0000
 11
12.7000
 21
8.8900
 31
0.0000
  0
CIRCLE
  8
20
 10
16.5100
 20
12.7000
 30
0.0000
 40
0.1750
  0
CIRCLE
  8
20
 10
41.9100
 20
12.7000
 30
0.0000
 40
0.1750
  0
CIRCLE
  8
20
 10
63.5000
 20
78.7400
 30
0.0000
 40
0.1750
  0
CIRCLE
  8
20
 10
31.7500
 20
78.7400
 30
0.0000
 40
0.1750
  0
CIRCLE
  8
20
 10
49.8700
 20
13.7000
 30
0.0000
 40
0.5000
  0
CIRCLE
  8
20
 10
54.2700
 20
13.7000
 30
0.0000
 40
0.5000
  0
INSERT
  8
1
  2
RECT
 10
52.0700
 20
16.7640
 30
0.0000
 41
0.5000
 42
2.3080
 43
1.0000
 50
180.0000
  0
INSERT
  8
1
  2
RECT
 10
51.2700
 20
16.7640
 30
0.0000
 41
0.5000
 42
2.3080
 43
1.0000
 50
180.0000
  0
INSERT
  8
1
  2
RECT
 10
53.6700
 20
16.7640
 30
0.0000
 41
0.5000
 42
2.3080
 43
1.0000
 50
180.0000
  0
INSERT
  8
1
  2
RECT
 10
47.6700
 20
10.7000
 30
0.0000
 41
2.0000
 42
2.4000
 43
1.0000
 50
0.0000
  0
INSERT
  8
1
  2
RECT
 10
47.6700
 20
16.2000
 30
0.0000
 41
2.0000
 42
2.4000
 43
1.0000
 50
0.0000
  0
INSERT
  8
1
  2
RECT
 10
56.4700
 20
16.2000
 30
0.0000
 41
2.0000
 42
2.4000
 43
1.0000
 50
0.0000
  0
INSERT
  8
1
  2
RECT
 10
56.4700
 20
10.7000
 30
0.0000
 41
2.0000
 42
2.4000
 43
1.0000
 50
0.0000
  0
INSERT
  8
1
  2
RECT
 10
52.8700
 20
16.7640
 30
0.0000
 41
0.5000
 42
2.3080
 43
1.0000
 50
180.0000
  0
INSERT
  8
1
  2
RECT
 10
50.4700
 20
16.7640
 30
0.0000
 41
0.5000
 42
2.3080
 43
1.0000
 50
180.0000
  0
INSERT
  8
17
  2
ROUNDP
 10
23.4950
 20
74.9300
 30
0.0000
 41
1.8796
 42
1.8796
 43
1.0000
 50
90.0000
  0
INSERT
  8
17
  2
ROUNDP
 10
23.4950
 20
74.9300
 30
0.0000
 41
1.8796
 42
1.8796
 43
1.0000
 50
90.0000
  0
CIRCLE
  8
44
 10
23.4950
 20
74.9300
 30
0.0000
 40
0.5080
  0
INSERT
  8
17
  2
ROUNDP
 10
26.0350
 20
74.9300
 30
0.0000
 41
1.8796
 42
1.8796
 43
1.0000
 50
90.0000
  0
INSERT
  8
17
  2
ROUNDP
 10
26.0350
 20
74.9300
 30
0.0000
 41
1.8796
 42
1.8796
 43
1.0000
 50
90.0000
  0
CIRCLE
  8
44
 10
26.0350
 20
74.9300
 30
0.0000
 40
0.5080
  0
INSERT
  8
17
  2
ROUNDP
 10
23.4950
 20
69.8500
 30
0.0000
 41
1.8796
 42
1.8796
 43
1.0000
 50
90.0000
  0
INSERT
  8
17
  2
ROUNDP
 10
23.4950
 20
69.8500
 30
0.0000
 41
1.8796
 42
1.8796
 43
1.0000
 50
90.0000
  0
CIRCLE
  8
44
 10
23.4950
 20
69.8500
 30
0.0000
 40
0.5080
  0
INSERT
  8
17
  2
ROUNDP
 10
26.0350
 20
69.8500
 30
0.0000
 41
1.8796
 42
1.8796
 43
1.0000
 50
90.0000
  0
INSERT
  8
17
  2
ROUNDP
 10
26.0350
 20
69.8500
 30
0.0000
 41
1.8796
 42
1.8796
 43
1.0000
 50
90.0000
  0
CIRCLE
  8
44
 10
26.0350
 20
69.8500
 30
0.0000
 40
0.5080
  0
INSERT
  8
17
  2
ROUNDP
 10
23.4950
 20
64.7700
 30
0.0000
 41
1.8796
 42
1.8796
 43
1.0000
 50
90.0000
  0
INSERT
  8
17
  2
ROUNDP
 10
23.4950
 20
64.7700
 30
0.0000
 41
1.8796
 42
1.8796
 43
1.0000
 50
90.0000
  0
CIRCLE
  8
44
 10
23.4950
 20
64.7700
 30
0.0000
 40
0.5080
  0
INSERT
  8
17
  2
ROUNDP
 10
26.0350
 20
64.7700
 30
0.0000
 41
1.8796
 42
1.8796
 43
1.0000
 50
90.0000
  0
INSERT
  8
17
  2
ROUNDP
 10
26.0350
 20
64.7700
 30
0.0000
 41
1.8796
 42
1.8796
 43
1.0000
 50
90.0000
  0
CIRCLE
  8
44
 10
26.0350
 20
64.7700
 30
0.0000
 40
0.5080
  0
INSERT
  8
17
  2
ROUNDP
 10
23.4950
 20
59.6900
 30
0.0000
 41
1.8796
 42
1.8796
 43
1.0000
 50
90.0000
  0
INSERT
  8
17
  2
ROUNDP
 10
23.4950
 20
59.6900
 30
0.0000
 41
1.8796
 42
1.8796
 43
1.0000
 50
90.0000
  0
CIRCLE
  8
44
 10
23.4950
 20
59.6900
 30
0.0000
 40
0.5080
  0
INSERT
  8
17
  2
ROUNDP
 10
26.0350
 20
59.6900
 30
0.0000
 41
1.8796
 42
1.8796
 43
1.0000
 50
90.0000
  0
INSERT
  8
17
  2
ROUNDP
 10
26.0350
 20
59.6900
 30
0.0000
 41
1.8796
 42
1.8796
 43
1.0000
 50
90.0000
  0
CIRCLE
  8
44
 10
26.0350
 20
59.6900
 30
0.0000
 40
0.5080
  0
INSERT
  8
17
  2
ROUNDP
 10
23.4950
 20
54.6100
 30
0.0000
 41
1.8796
 42
1.8796
 43
1.0000
 50
90.0000
  0
INSERT
  8
17
  2
ROUNDP
 10
23.4950
 20
54.6100
 30
0.0000
 41
1.8796
 42
1.8796
 43
1.0000
 50
90.0000
  0
CIRCLE
  8
44
 10
23.4950
 20
54.6100
 30
0.0000
 40
0.5080
  0
INSERT
  8
17
  2
ROUNDP
 10
26.0350
 20
54.6100
 30
0.0000
 41
1.8796
 42
1.8796
 43
1.0000
 50
90.0000
  0
INSERT
  8
17
  2
ROUNDP
 10
26.0350
 20
54.6100
 30
0.0000
 41
1.8796
 42
1.8796
 43
1.0000
 50
90.0000
  0
CIRCLE
  8
44
 10
26.0350
 20
54.6100
 30
0.0000
 40
0.5080
  0
INSERT
  8
17
  2
ROUNDP
 10
23.4950
 20
49.5300
 30
0.0000
 41
1.8796
 42
1.8796
 43
1.0000
 50
90.0000
  0
INSERT
  8
17
  2
ROUNDP
 10
23.4950
 20
49.5300
 30
0.0000
 41
1.8796
 42
1.8796
 43
1.0000
 50
90.0000
  0
CIRCLE
  8
44
 10
23.4950
 20
49.5300
 30
0.0000
 40
0.5080
  0
INSERT
  8
17
  2
ROUNDP
 10
26.0350
 20
49.5300
 30
0.0000
 41
1.8796
 42
1.8796
 43
1.0000
 50
90.0000
  0
INSERT
  8
17
  2
ROUNDP
 10
26.0350
 20
49.5300
 30
0.0000
 41
1.8796
 42
1.8796
 43
1.0000
 50
90.0000
  0
CIRCLE
  8
44
 10
26.0350
 20
49.5300
 30
0.0000
 40
0.5080
  0
INSERT
  8
17
  2
ROUNDP
 10
23.4950
 20
44.4500
 30
0.0000
 41
1.8796
 42
1.8796
 43
1.0000
 50
90.0000
  0
INSERT
  8
17
  2
ROUNDP
 10
23.4950
 20
44.4500
 30
0.0000
 41
1.8796
 42
1.8796
 43
1.0000
 50
90.0000
  0
CIRCLE
  8
44
 10
23.4950
 20
44.4500
 30
0.0000
 40
0.5080
  0
INSERT
  8
17
  2
ROUNDP
 10
26.0350
 20
44.4500
 30
0.0000
 41
1.8796
 42
1.8796
 43
1.0000
 50
90.0000
  0
INSERT
  8
17
  2
ROUNDP
 10
26.0350
 20
44.4500
 30
0.0000
 41
1.8796
 42
1.8796
 43
1.0000
 50
90.0000
  0
CIRCLE
  8
44
 10
26.0350
 20
44.4500
 30
0.0000
 40
0.5080
  0
INSERT
  8
17
  2
ROUNDP
 10
23.4950
 20
39.3700
 30
0.0000
 41
1.8796
 42
1.8796
 43
1.0000
 50
90.0000
  0
INSERT
  8
17
  2
ROUNDP
 10
23.4950
 20
39.3700
 30
0.0000
 41
1.8796
 42
1.8796
 43
1.0000
 50
90.0000
  0
CIRCLE
  8
44
 10
23.4950
 20
39.3700
 30
0.0000
 40
0.5080
  0
INSERT
  8
17
  2
ROUNDP
 10
26.0350
 20
39.3700
 30
0.0000
 41
1.8796
 42
1.8796
 43
1.0000
 50
90.0000
  0
INSERT
  8
17
  2
ROUNDP
 10
26.0350
 20
39.3700
 30
0.0000
 41
1.8796
 42
1.8796
 43
1.0000
 50
90.0000
  0
CIRCLE
  8
44
 10
26.0350
 20
39.3700
 30
0.0000
 40
0.5080
  0
INSERT
  8
17
  2
LONGP100
 10
62.8650
 20
24.1300
 30
0.0000
 41
1.8796
 42
1.8796
 43
1.0000
 50
180.0000
  0
INSERT
  8
17
  2
LONGP100
 10
62.8650
 20
24.1300
 30
0.0000
 41
1.8796
 42
1.8796
 43
1.0000
 50
180.0000
  0
CIRCLE
  8
44
 10
62.8650
 20
24.1300
 30
0.0000
 40
0.5588
  0
INSERT
  8
17
  2
LONGP100
 10
62.8650
 20
26.6700
 30
0.0000
 41
1.8796
 42
1.8796
 43
1.0000
 50
180.0000
  0
INSERT
  8
17
  2
LONGP100
 10
62.8650
 20
26.6700
 30
0.0000
 41
1.8796
 42
1.8796
 43
1.0000
 50
180.0000
  0
CIRCLE
  8
44
 10
62.8650
 20
26.6700
 30
0.0000
 40
0.5588
  0
INSERT
  8
17
  2
LONGP100
 10
62.8650
 20
29.2100
 30
0.0000
 41
1.8796
 42
1.8796
 43
1.0000
 50
180.0000
  0
INSERT
  8
17
  2
LONGP100
 10
62.8650
 20
29.2100
 30
0.0000
 41
1.8796
 42
1.8796
 43
1.0000
 50
180.0000
  0
CIRCLE
  8
44
 10
62.8650
 20
29.2100
 30
0.0000
 40
0.5588
  0
INSERT
  8
17
  2
LONGP100
 10
62.8650
 20
31.7500
 30
0.0000
 41
1.8796
 42
1.8796
 43
1.0000
 50
180.0000
  0
INSERT
  8
17
  2
LONGP100
 10
62.8650
 20
31.7500
 30
0.0000
 41
1.8796
 42
1.8796
 43
1.0000
 50
180.0000
  0
CIRCLE
  8
44
 10
62.8650
 20
31.7500
 30
0.0000
 40
0.5588
  0
INSERT
  8
17
  2
LONGP100
 10
19.0500
 20
31.1150
 30
0.0000
 41
1.8796
 42
1.8796
 43
1.0000
 50
0.0000
  0
INSERT
  8
17
  2
LONGP100
 10
19.0500
 20
31.1150
 30
0.0000
 41
1.8796
 42
1.8796
 43
1.0000
 50
0.0000
  0
CIRCLE
  8
44
 10
19.0500
 20
31.1150
 30
0.0000
 40
0.5588
  0
INSERT
  8
17
  2
LONGP100
 10
19.0500
 20
28.5750
 30
0.0000
 41
1.8796
 42
1.8796
 43
1.0000
 50
0.0000
  0
INSERT
  8
17
  2
LONGP100
 10
19.0500
 20
28.5750
 30
0.0000
 41
1.8796
 42
1.8796
 43
1.0000
 50
0.0000
  0
CIRCLE
  8
44
 10
19.0500
 20
28.5750
 30
0.0000
 40
0.5588
  0
INSERT
  8
17
  2
LONGP100
 10
19.0500
 20
26.0350
 30
0.0000
 41
1.8796
 42
1.8796
 43
1.0000
 50
0.0000
  0
INSERT
  8
17
  2
LONGP100
 10
19.0500
 20
26.0350
 30
0.0000
 41
1.8796
 42
1.8796
 43
1.0000
 50
0.0000
  0
CIRCLE
  8
44
 10
19.0500
 20
26.0350
 30
0.0000
 40
0.5588
  0
INSERT
  8
17
  2
LONGP100
 10
19.0500
 20
23.4950
 30
0.0000
 41
1.8796
 42
1.8796
 43
1.0000
 50
0.0000
  0
INSERT
  8
17
  2
LONGP100
 10
19.0500
 20
23.4950
 30
0.0000
 41
1.8796
 42
1.8796
 43
1.0000
 50
0.0000
  0
CIRCLE
  8
44
 10
19.0500
 20
23.4950
 30
0.0000
 40
0.5588
  0
INSERT
  8
17
  2
OCTAGONP
 10
26.0350
 20
77.4700
 30
0.0000
 41
1.3208
 42
1.3208
 43
1.0000
 50
180.0000
  0
INSERT
  8
17
  2
OCTAGONP
 10
26.0350
 20
77.4700
 30
0.0000
 41
1.3208
 42
1.3208
 43
1.0000
 50
180.0000
  0
CIRCLE
  8
44
 10
26.0350
 20
77.4700
 30
0.0000
 40
0.4064
  0
INSERT
  8
17
  2
OCTAGONP
 10
18.4150
 20
77.4700
 30
0.0000
 41
1.3208
 42
1.3208
 43
1.0000
 50
180.0000
  0
INSERT
  8
17
  2
OCTAGONP
 10
18.4150
 20
77.4700
 30
0.0000
 41
1.3208
 42
1.3208
 43
1.0000
 50
180.0000
  0
CIRCLE
  8
44
 10
18.4150
 20
77.4700
 30
0.0000
 40
0.4064
  0
INSERT
  8
17
  2
OCTAGONP
 10
26.0350
 20
72.3900
 30
0.0000
 41
1.3208
 42
1.3208
 43
1.0000
 50
180.0000
  0
INSERT
  8
17
  2
OCTAGONP
 10
26.0350
 20
72.3900
 30
0.0000
 41
1.3208
 42
1.3208
 43
1.0000
 50
180.0000
  0
CIRCLE
  8
44
 10
26.0350
 20
72.3900
 30
0.0000
 40
0.4064
  0
INSERT
  8
17
  2
OCTAGONP
 10
18.4150
 20
72.3900
 30
0.0000
 41
1.3208
 42
1.3208
 43
1.0000
 50
180.0000
  0
INSERT
  8
17
  2
OCTAGONP
 10
18.4150
 20
72.3900
 30
0.0000
 41
1.3208
 42
1.3208
 43
1.0000
 50
180.0000
  0
CIRCLE
  8
44
 10
18.4150
 20
72.3900
 30
0.0000
 40
0.4064
  0
INSERT
  8
17
  2
OCTAGONP
 10
26.0350
 20
67.3100
 30
0.0000
 41
1.3208
 42
1.3208
 43
1.0000
 50
180.0000
  0
INSERT
  8
17
  2
OCTAGONP
 10
26.0350
 20
67.3100
 30
0.0000
 41
1.3208
 42
1.3208
 43
1.0000
 50
180.0000
  0
CIRCLE
  8
44
 10
26.0350
 20
67.3100
 30
0.0000
 40
0.4064
  0
INSERT
  8
17
  2
OCTAGONP
 10
18.4150
 20
67.3100
 30
0.0000
 41
1.3208
 42
1.3208
 43
1.0000
 50
180.0000
  0
INSERT
  8
17
  2
OCTAGONP
 10
18.4150
 20
67.3100
 30
0.0000
 41
1.3208
 42
1.3208
 43
1.0000
 50
180.0000
  0
CIRCLE
  8
44
 10
18.4150
 20
67.3100
 30
0.0000
 40
0.4064
  0
INSERT
  8
17
  2
OCTAGONP
 10
26.0350
 20
62.2300
 30
0.0000
 41
1.3208
 42
1.3208
 43
1.0000
 50
180.0000
  0
INSERT
  8
17
  2
OCTAGONP
 10
26.0350
 20
62.2300
 30
0.0000
 41
1.3208
 42
1.3208
 43
1.0000
 50
180.0000
  0
CIRCLE
  8
44
 10
26.0350
 20
62.2300
 30
0.0000
 40
0.4064
  0
INSERT
  8
17
  2
OCTAGONP
 10
18.4150
 20
62.2300
 30
0.0000
 41
1.3208
 42
1.3208
 43
1.0000
 50
180.0000
  0
INSERT
  8
17
  2
OCTAGONP
 10
18.4150
 20
62.2300
 30
0.0000
 41
1.3208
 42
1.3208
 43
1.0000
 50
180.0000
  0
CIRCLE
  8
44
 10
18.4150
 20
62.2300
 30
0.0000
 40
0.4064
  0
INSERT
  8
17
  2
OCTAGONP
 10
26.0350
 20
57.1500
 30
0.0000
 41
1.3208
 42
1.3208
 43
1.0000
 50
180.0000
  0
INSERT
  8
17
  2
OCTAGONP
 10
26.0350
 20
57.1500
 30
0.0000
 41
1.3208
 42
1.3208
 43
1.0000
 50
180.0000
  0
CIRCLE
  8
44
 10
26.0350
 20
57.1500
 30
0.0000
 40
0.4064
  0
INSERT
  8
17
  2
OCTAGONP
 10
18.4150
 20
57.1500
 30
0.0000
 41
1.3208
 42
1.3208
 43
1.0000
 50
180.0000
  0
INSERT
  8
17
  2
OCTAGONP
 10
18.4150
 20
57.1500
 30
0.0000
 41
1.3208
 42
1.3208
 43
1.0000
 50
180.0000
  0
CIRCLE
  8
44
 10
18.4150
 20
57.1500
 30
0.0000
 40
0.4064
  0
INSERT
  8
17
  2
OCTAGONP
 10
26.0350
 20
52.0700
 30
0.0000
 41
1.3208
 42
1.3208
 43
1.0000
 50
180.0000
  0
INSERT
  8
17
  2
OCTAGONP
 10
26.0350
 20
52.0700
 30
0.0000
 41
1.3208
 42
1.3208
 43
1.0000
 50
180.0000
  0
CIRCLE
  8
44
 10
26.0350
 20
52.0700
 30
0.0000
 40
0.4064
  0
INSERT
  8
17
  2
OCTAGONP
 10
18.4150
 20
52.0700
 30
0.0000
 41
1.3208
 42
1.3208
 43
1.0000
 50
180.0000
  0
INSERT
  8
17
  2
OCTAGONP
 10
18.4150
 20
52.0700
 30
0.0000
 41
1.3208
 42
1.3208
 43
1.0000
 50
180.0000
  0
CIRCLE
  8
44
 10
18.4150
 20
52.0700
 30
0.0000
 40
0.4064
  0
INSERT
  8
17
  2
OCTAGONP
 10
26.0350
 20
46.9900
 30
0.0000
 41
1.3208
 42
1.3208
 43
1.0000
 50
180.0000
  0
INSERT
  8
17
  2
OCTAGONP
 10
26.0350
 20
46.9900
 30
0.0000
 41
1.3208
 42
1.3208
 43
1.0000
 50
180.0000
  0
CIRCLE
  8
44
 10
26.0350
 20
46.9900
 30
0.0000
 40
0.4064
  0
INSERT
  8
17
  2
OCTAGONP
 10
18.4150
 20
46.9900
 30
0.0000
 41
1.3208
 42
1.3208
 43
1.0000
 50
180.0000
  0
INSERT
  8
17
  2
OCTAGONP
 10
18.4150
 20
46.9900
 30
0.0000
 41
1.3208
 42
1.3208
 43
1.0000
 50
180.0000
  0
CIRCLE
  8
44
 10
18.4150
 20
46.9900
 30
0.0000
 40
0.4064
  0
INSERT
  8
17
  2
OCTAGONP
 10
26.0350
 20
41.9100
 30
0.0000
 41
1.3208
 42
1.3208
 43
1.0000
 50
180.0000
  0
INSERT
  8
17
  2
OCTAGONP
 10
26.0350
 20
41.9100
 30
0.0000
 41
1.3208
 42
1.3208
 43
1.0000
 50
180.0000
  0
CIRCLE
  8
44
 10
26.0350
 20
41.9100
 30
0.0000
 40
0.4064
  0
INSERT
  8
17
  2
OCTAGONP
 10
18.4150
 20
41.9100
 30
0.0000
 41
1.3208
 42
1.3208
 43
1.0000
 50
180.0000
  0
INSERT
  8
17
  2
OCTAGONP
 10
18.4150
 20
41.9100
 30
0.0000
 41
1.3208
 42
1.3208
 43
1.0000
 50
180.0000
  0
CIRCLE
  8
44
 10
18.4150
 20
41.9100
 30
0.0000
 40
0.4064
  0
INSERT
  8
17
  2
LONGP100
 10
36.1950
 20
74.9300
 30
0.0000
 41
1.3080
 42
1.3080
 43
1.0000
 50
180.0000
  0
INSERT
  8
17
  2
LONGP100
 10
36.1950
 20
74.9300
 30
0.0000
 41
1.3080
 42
1.3080
 43
1.0000
 50
180.0000
  0
CIRCLE
  8
44
 10
36.1950
 20
74.9300
 30
0.0000
 40
0.4000
  0
INSERT
  8
17
  2
LONGP100
 10
36.1950
 20
49.5300
 30
0.0000
 41
1.3080
 42
1.3080
 43
1.0000
 50
0.0000
  0
INSERT
  8
17
  2
LONGP100
 10
36.1950
 20
49.5300
 30
0.0000
 41
1.3080
 42
1.3080
 43
1.0000
 50
0.0000
  0
CIRCLE
  8
44
 10
36.1950
 20
49.5300
 30
0.0000
 40
0.4000
  0
INSERT
  8
17
  2
LONGP100
 10
36.1950
 20
69.8500
 30
0.0000
 41
1.3080
 42
1.3080
 43
1.0000
 50
0.0000
  0
INSERT
  8
17
  2
LONGP100
 10
36.1950
 20
69.8500
 30
0.0000
 41
1.3080
 42
1.3080
 43
1.0000
 50
0.0000
  0
CIRCLE
  8
44
 10
36.1950
 20
69.8500
 30
0.0000
 40
0.4000
  0
INSERT
  8
17
  2
LONGP100
 10
36.1950
 20
67.3100
 30
0.0000
 41
1.3080
 42
1.3080
 43
1.0000
 50
0.0000
  0
INSERT
  8
17
  2
LONGP100
 10
36.1950
 20
67.3100
 30
0.0000
 41
1.3080
 42
1.3080
 43
1.0000
 50
0.0000
  0
CIRCLE
  8
44
 10
36.1950
 20
67.3100
 30
0.0000
 40
0.4000
  0
INSERT
  8
17
  2
LONGP100
 10
36.1950
 20
64.7700
 30
0.0000
 41
1.3080
 42
1.3080
 43
1.0000
 50
0.0000
  0
INSERT
  8
17
  2
LONGP100
 10
36.1950
 20
64.7700
 30
0.0000
 41
1.3080
 42
1.3080
 43
1.0000
 50
0.0000
  0
CIRCLE
  8
44
 10
36.1950
 20
64.7700
 30
0.0000
 40
0.4000
  0
INSERT
  8
17
  2
LONGP100
 10
36.1950
 20
62.2300
 30
0.0000
 41
1.3080
 42
1.3080
 43
1.0000
 50
0.0000
  0
INSERT
  8
17
  2
LONGP100
 10
36.1950
 20
62.2300
 30
0.0000
 41
1.3080
 42
1.3080
 43
1.0000
 50
0.0000
  0
CIRCLE
  8
44
 10
36.1950
 20
62.2300
 30
0.0000
 40
0.4000
  0
INSERT
  8
17
  2
LONGP100
 10
36.1950
 20
59.6900
 30
0.0000
 41
1.3080
 42
1.3080
 43
1.0000
 50
180.0000
  0
INSERT
  8
17
  2
LONGP100
 10
36.1950
 20
59.6900
 30
0.0000
 41
1.3080
 42
1.3080
 43
1.0000
 50
180.0000
  0
CIRCLE
  8
44
 10
36.1950
 20
59.6900
 30
0.0000
 40
0.4000
  0
INSERT
  8
17
  2
LONGP100
 10
36.1950
 20
57.1500
 30
0.0000
 41
1.3080
 42
1.3080
 43
1.0000
 50
180.0000
  0
INSERT
  8
17
  2
LONGP100
 10
36.1950
 20
57.1500
 30
0.0000
 41
1.3080
 42
1.3080
 43
1.0000
 50
180.0000
  0
CIRCLE
  8
44
 10
36.1950
 20
57.1500
 30
0.0000
 40
0.4000
  0
INSERT
  8
17
  2
LONGP100
 10
36.1950
 20
54.6100
 30
0.0000
 41
1.3080
 42
1.3080
 43
1.0000
 50
180.0000
  0
INSERT
  8
17
  2
LONGP100
 10
36.1950
 20
54.6100
 30
0.0000
 41
1.3080
 42
1.3080
 43
1.0000
 50
180.0000
  0
CIRCLE
  8
44
 10
36.1950
 20
54.6100
 30
0.0000
 40
0.4000
  0
INSERT
  8
17
  2
LONGP100
 10
36.1950
 20
52.0700
 30
0.0000
 41
1.3080
 42
1.3080
 43
1.0000
 50
180.0000
  0
INSERT
  8
17
  2
LONGP100
 10
36.1950
 20
52.0700
 30
0.0000
 41
1.3080
 42
1.3080
 43
1.0000
 50
180.0000
  0
CIRCLE
  8
44
 10
36.1950
 20
52.0700
 30
0.0000
 40
0.4000
  0
INSERT
  8
17
  2
LONGP100
 10
36.1950
 20
72.3900
 30
0.0000
 41
1.3080
 42
1.3080
 43
1.0000
 50
180.0000
  0
INSERT
  8
17
  2
LONGP100
 10
36.1950
 20
72.3900
 30
0.0000
 41
1.3080
 42
1.3080
 43
1.0000
 50
180.0000
  0
CIRCLE
  8
44
 10
36.1950
 20
72.3900
 30
0.0000
 40
0.4000
  0
INSERT
  8
17
  2
LONGP100
 10
51.4350
 20
52.0700
 30
0.0000
 41
1.3080
 42
1.3080
 43
1.0000
 50
0.0000
  0
INSERT
  8
17
  2
LONGP100
 10
51.4350
 20
52.0700
 30
0.0000
 41
1.3080
 42
1.3080
 43
1.0000
 50
0.0000
  0
CIRCLE
  8
44
 10
51.4350
 20
52.0700
 30
0.0000
 40
0.4000
  0
INSERT
  8
17
  2
LONGP100
 10
51.4350
 20
54.6100
 30
0.0000
 41
1.3080
 42
1.3080
 43
1.0000
 50
0.0000
  0
INSERT
  8
17
  2
LONGP100
 10
51.4350
 20
54.6100
 30
0.0000
 41
1.3080
 42
1.3080
 43
1.0000
 50
0.0000
  0
CIRCLE
  8
44
 10
51.4350
 20
54.6100
 30
0.0000
 40
0.4000
  0
INSERT
  8
17
  2
LONGP100
 10
51.4350
 20
57.1500
 30
0.0000
 41
1.3080
 42
1.3080
 43
1.0000
 50
0.0000
  0
INSERT
  8
17
  2
LONGP100
 10
51.4350
 20
57.1500
 30
0.0000
 41
1.3080
 42
1.3080
 43
1.0000
 50
0.0000
  0
CIRCLE
  8
44
 10
51.4350
 20
57.1500
 30
0.0000
 40
0.4000
  0
INSERT
  8
17
  2
LONGP100
 10
51.4350
 20
59.6900
 30
0.0000
 41
1.3080
 42
1.3080
 43
1.0000
 50
0.0000
  0
INSERT
  8
17
  2
LONGP100
 10
51.4350
 20
59.6900
 30
0.0000
 41
1.3080
 42
1.3080
 43
1.0000
 50
0.0000
  0
CIRCLE
  8
44
 10
51.4350
 20
59.6900
 30
0.0000
 40
0.4000
  0
INSERT
  8
17
  2
LONGP100
 10
51.4350
 20
62.2300
 30
0.0000
 41
1.3080
 42
1.3080
 43
1.0000
 50
0.0000
  0
INSERT
  8
17
  2
LONGP100
 10
51.4350
 20
62.2300
 30
0.0000
 41
1.3080
 42
1.3080
 43
1.0000
 50
0.0000
  0
CIRCLE
  8
44
 10
51.4350
 20
62.2300
 30
0.0000
 40
0.4000
  0
INSERT
  8
17
  2
LONGP100
 10
51.4350
 20
64.7700
 30
0.0000
 41
1.3080
 42
1.3080
 43
1.0000
 50
0.0000
  0
INSERT
  8
17
  2
LONGP100
 10
51.4350
 20
64.7700
 30
0.0000
 41
1.3080
 42
1.3080
 43
1.0000
 50
0.0000
  0
CIRCLE
  8
44
 10
51.4350
 20
64.7700
 30
0.0000
 40
0.4000
  0
INSERT
  8
17
  2
LONGP100
 10
51.4350
 20
67.3100
 30
0.0000
 41
1.3080
 42
1.3080
 43
1.0000
 50
0.0000
  0
INSERT
  8
17
  2
LONGP100
 10
51.4350
 20
67.3100
 30
0.0000
 41
1.3080
 42
1.3080
 43
1.0000
 50
0.0000
  0
CIRCLE
  8
44
 10
51.4350
 20
67.3100
 30
0.0000
 40
0.4000
  0
INSERT
  8
17
  2
LONGP100
 10
51.4350
 20
69.8500
 30
0.0000
 41
1.3080
 42
1.3080
 43
1.0000
 50
0.0000
  0
INSERT
  8
17
  2
LONGP100
 10
51.4350
 20
69.8500
 30
0.0000
 41
1.3080
 42
1.3080
 43
1.0000
 50
0.0000
  0
CIRCLE
  8
44
 10
51.4350
 20
69.8500
 30
0.0000
 40
0.4000
  0
INSERT
  8
17
  2
LONGP100
 10
51.4350
 20
72.3900
 30
0.0000
 41
1.3080
 42
1.3080
 43
1.0000
 50
0.0000
  0
INSERT
  8
17
  2
LONGP100
 10
51.4350
 20
72.3900
 30
0.0000
 41
1.3080
 42
1.3080
 43
1.0000
 50
0.0000
  0
CIRCLE
  8
44
 10
51.4350
 20
72.3900
 30
0.0000
 40
0.4000
  0
INSERT
  8
17
  2
LONGP100
 10
51.4350
 20
74.9300
 30
0.0000
 41
1.3080
 42
1.3080
 43
1.0000
 50
0.0000
  0
INSERT
  8
17
  2
LONGP100
 10
51.4350
 20
74.9300
 30
0.0000
 41
1.3080
 42
1.3080
 43
1.0000
 50
0.0000
  0
CIRCLE
  8
44
 10
51.4350
 20
74.9300
 30
0.0000
 40
0.4000
  0
INSERT
  8
17
  2
LONGP100
 10
51.4350
 20
77.4700
 30
0.0000
 41
1.3080
 42
1.3080
 43
1.0000
 50
0.0000
  0
INSERT
  8
17
  2
LONGP100
 10
51.4350
 20
77.4700
 30
0.0000
 41
1.3080
 42
1.3080
 43
1.0000
 50
0.0000
  0
CIRCLE
  8
44
 10
51.4350
 20
77.4700
 30
0.0000
 40
0.4000
  0
INSERT
  8
17
  2
LONGP100
 10
36.1950
 20
77.4700
 30
0.0000
 41
1.3080
 42
1.3080
 43
1.0000
 50
0.0000
  0
INSERT
  8
17
  2
LONGP100
 10
36.1950
 20
77.4700
 30
0.0000
 41
1.3080
 42
1.3080
 43
1.0000
 50
0.0000
  0
CIRCLE
  8
44
 10
36.1950
 20
77.4700
 30
0.0000
 40
0.4000
  0
INSERT
  8
17
  2
LONGP100
 10
36.1950
 20
44.4500
 30
0.0000
 41
1.3080
 42
1.3080
 43
1.0000
 50
0.0000
  0
INSERT
  8
17
  2
LONGP100
 10
36.1950
 20
44.4500
 30
0.0000
 41
1.3080
 42
1.3080
 43
1.0000
 50
0.0000
  0
CIRCLE
  8
44
 10
36.1950
 20
44.4500
 30
0.0000
 40
0.4000
  0
INSERT
  8
17
  2
LONGP100
 10
51.4350
 20
49.5300
 30
0.0000
 41
1.3080
 42
1.3080
 43
1.0000
 50
0.0000
  0
INSERT
  8
17
  2
LONGP100
 10
51.4350
 20
49.5300
 30
0.0000
 41
1.3080
 42
1.3080
 43
1.0000
 50
0.0000
  0
CIRCLE
  8
44
 10
51.4350
 20
49.5300
 30
0.0000
 40
0.4000
  0
INSERT
  8
17
  2
ROUNDP
 10
41.2750
 20
40.6400
 30
0.0000
 41
1.3080
 42
1.3080
 43
1.0000
 50
90.0000
  0
INSERT
  8
17
  2
ROUNDP
 10
41.2750
 20
40.6400
 30
0.0000
 41
1.3080
 42
1.3080
 43
1.0000
 50
90.0000
  0
CIRCLE
  8
44
 10
41.2750
 20
40.6400
 30
0.0000
 40
0.4000
  0
INSERT
  8
17
  2
ROUNDP
 10
41.2750
 20
43.1800
 30
0.0000
 41
1.3080
 42
1.3080
 43
1.0000
 50
90.0000
  0
INSERT
  8
17
  2
ROUNDP
 10
41.2750
 20
43.1800
 30
0.0000
 41
1.3080
 42
1.3080
 43
1.0000
 50
90.0000
  0
CIRCLE
  8
44
 10
41.2750
 20
43.1800
 30
0.0000
 40
0.4000
  0
INSERT
  8
17
  2
ROUNDP
 10
43.8150
 20
40.6400
 30
0.0000
 41
1.3080
 42
1.3080
 43
1.0000
 50
90.0000
  0
INSERT
  8
17
  2
ROUNDP
 10
43.8150
 20
40.6400
 30
0.0000
 41
1.3080
 42
1.3080
 43
1.0000
 50
90.0000
  0
CIRCLE
  8
44
 10
43.8150
 20
40.6400
 30
0.0000
 40
0.4000
  0
INSERT
  8
17
  2
ROUNDP
 10
43.8150
 20
43.1800
 30
0.0000
 41
1.3080
 42
1.3080
 43
1.0000
 50
90.0000
  0
INSERT
  8
17
  2
ROUNDP
 10
43.8150
 20
43.1800
 30
0.0000
 41
1.3080
 42
1.3080
 43
1.0000
 50
90.0000
  0
CIRCLE
  8
44
 10
43.8150
 20
43.1800
 30
0.0000
 40
0.4000
  0
INSERT
  8
17
  2
ROUNDP
 10
46.3550
 20
40.6400
 30
0.0000
 41
1.3080
 42
1.3080
 43
1.0000
 50
90.0000
  0
INSERT
  8
17
  2
ROUNDP
 10
46.3550
 20
40.6400
 30
0.0000
 41
1.3080
 42
1.3080
 43
1.0000
 50
90.0000
  0
CIRCLE
  8
44
 10
46.3550
 20
40.6400
 30
0.0000
 40
0.4000
  0
INSERT
  8
17
  2
ROUNDP
 10
46.3550
 20
43.1800
 30
0.0000
 41
1.3080
 42
1.3080
 43
1.0000
 50
90.0000
  0
INSERT
  8
17
  2
ROUNDP
 10
46.3550
 20
43.1800
 30
0.0000
 41
1.3080
 42
1.3080
 43
1.0000
 50
90.0000
  0
CIRCLE
  8
44
 10
46.3550
 20
43.1800
 30
0.0000
 40
0.4000
  0
INSERT
  8
17
  2
LONGP100
 10
36.1950
 20
41.9100
 30
0.0000
 41
1.3080
 42
1.3080
 43
1.0000
 50
0.0000
  0
INSERT
  8
17
  2
LONGP100
 10
36.1950
 20
41.9100
 30
0.0000
 41
1.3080
 42
1.3080
 43
1.0000
 50
0.0000
  0
CIRCLE
  8
44
 10
36.1950
 20
41.9100
 30
0.0000
 40
0.4000
  0
INSERT
  8
17
  2
LONGP100
 10
36.1950
 20
46.9900
 30
0.0000
 41
1.3080
 42
1.3080
 43
1.0000
 50
0.0000
  0
INSERT
  8
17
  2
LONGP100
 10
36.1950
 20
46.9900
 30
0.0000
 41
1.3080
 42
1.3080
 43
1.0000
 50
0.0000
  0
CIRCLE
  8
44
 10
36.1950
 20
46.9900
 30
0.0000
 40
0.4000
  0
INSERT
  8
17
  2
LONGP100
 10
51.4350
 20
46.9900
 30
0.0000
 41
1.3080
 42
1.3080
 43
1.0000
 50
0.0000
  0
INSERT
  8
17
  2
LONGP100
 10
51.4350
 20
46.9900
 30
0.0000
 41
1.3080
 42
1.3080
 43
1.0000
 50
0.0000
  0
CIRCLE
  8
44
 10
51.4350
 20
46.9900
 30
0.0000
 40
0.4000
  0
INSERT
  8
17
  2
LONGP100
 10
51.4350
 20
44.4500
 30
0.0000
 41
1.3080
 42
1.3080
 43
1.0000
 50
0.0000
  0
INSERT
  8
17
  2
LONGP100
 10
51.4350
 20
44.4500
 30
0.0000
 41
1.3080
 42
1.3080
 43
1.0000
 50
0.0000
  0
CIRCLE
  8
44
 10
51.4350
 20
44.4500
 30
0.0000
 40
0.4000
  0
INSERT
  8
17
  2
LONGP100
 10
51.4350
 20
41.9100
 30
0.0000
 41
1.3080
 42
1.3080
 43
1.0000
 50
0.0000
  0
INSERT
  8
17
  2
LONGP100
 10
51.4350
 20
41.9100
 30
0.0000
 41
1.3080
 42
1.3080
 43
1.0000
 50
0.0000
  0
CIRCLE
  8
44
 10
51.4350
 20
41.9100
 30
0.0000
 40
0.4000
  0
POLYLINE
  8
16
 66
1
 10
0.0000
 20
0.0000
 30
0.0000
 40
0.0000
 41
0.0000
 70
1
  0
VERTEX
  8
16
 10
17.7800
 20
77.4700
 30
0.0000
  0
VERTEX
  8
16
 10
17.7800
 20
72.3900
 30
0.0000
 42
1.0000
  0
VERTEX
  8
16
 10
19.0500
 20
72.3900
 30
0.0000
  0
VERTEX
  8
16
 10
19.0500
 20
77.4700
 30
0.0000
 42
1.0000
  0
SEQEND
  8
0
  0
POLYLINE
  8
16
 66
1
 10
0.0000
 20
0.0000
 30
0.0000
 40
0.0000
 41
0.0000
 70
1
  0
VERTEX
  8
16
 10
17.7800
 20
72.3900
 30
0.0000
  0
VERTEX
  8
16
 10
17.7800
 20
67.3100
 30
0.0000
 42
1.0000
  0
VERTEX
  8
16
 10
19.0500
 20
67.3100
 30
0.0000
  0
VERTEX
  8
16
 10
19.0500
 20
72.3900
 30
0.0000
 42
1.0000
  0
SEQEND
  8
0
  0
POLYLINE
  8
16
 66
1
 10
0.0000
 20
0.0000
 30
0.0000
 40
0.0000
 41
0.0000
 70
1
  0
VERTEX
  8
16
 10
17.7800
 20
67.3100
 30
0.0000
  0
VERTEX
  8
16
 10
17.7800
 20
62.2300
 30
0.0000
 42
1.0000
  0
VERTEX
  8
16
 10
19.0500
 20
62.2300
 30
0.0000
  0
VERTEX
  8
16
 10
19.0500
 20
67.3100
 30
0.0000
 42
1.0000
  0
SEQEND
  8
0
  0
POLYLINE
  8
16
 66
1
 10
0.0000
 20
0.0000
 30
0.0000
 40
0.0000
 41
0.0000
 70
1
  0
VERTEX
  8
16
 10
17.7800
 20
62.2300
 30
0.0000
  0
VERTEX
  8
16
 10
17.7800
 20
57.1500
 30
0.0000
 42
1.0000
  0
VERTEX
  8
16
 10
19.0500
 20
57.1500
 30
0.0000
  0
VERTEX
  8
16
 10
19.0500
 20
62.2300
 30
0.0000
 42
1.0000
  0
SEQEND
  8
0
  0
POLYLINE
  8
16
 66
1
 10
0.0000
 20
0.0000
 30
0.0000
 40
0.0000
 41
0.0000
 70
1
  0
VERTEX
  8
16
 10
17.7800
 20
57.1500
 30
0.0000
  0
VERTEX
  8
16
 10
17.7800
 20
52.0700
 30
0.0000
 42
1.0000
  0
VERTEX
  8
16
 10
19.0500
 20
52.0700
 30
0.0000
  0
VERTEX
  8
16
 10
19.0500
 20
57.1500
 30
0.0000
 42
1.0000
  0
SEQEND
  8
0
  0
POLYLINE
  8
16
 66
1
 10
0.0000
 20
0.0000
 30
0.0000
 40
0.0000
 41
0.0000
 70
1
  0
VERTEX
  8
16
 10
17.7800
 20
52.0700
 30
0.0000
  0
VERTEX
  8
16
 10
17.7800
 20
46.9900
 30
0.0000
 42
1.0000
  0
VERTEX
  8
16
 10
19.0500
 20
46.9900
 30
0.0000
  0
VERTEX
  8
16
 10
19.0500
 20
52.0700
 30
0.0000
 42
1.0000
  0
SEQEND
  8
0
  0
POLYLINE
  8
16
 66
1
 10
0.0000
 20
0.0000
 30
0.0000
 40
0.0000
 41
0.0000
 70
1
  0
VERTEX
  8
16
 10
17.7800
 20
46.9900
 30
0.0000
  0
VERTEX
  8
16
 10
17.7800
 20
41.9100
 30
0.0000
 42
1.0000
  0
VERTEX
  8
16
 10
19.0500
 20
41.9100
 30
0.0000
  0
VERTEX
  8
16
 10
19.0500
 20
46.9900
 30
0.0000
 42
1.0000
  0
SEQEND
  8
0
  0
POLYLINE
  8
16
 66
1
 10
0.0000
 20
0.0000
 30
0.0000
 40
0.0000
 41
0.0000
 70
1
  0
VERTEX
  8
16
 10
17.7800
 20
41.9100
 30
0.0000
  0
VERTEX
  8
16
 10
17.7800
 20
40.0050
 30
0.0000
 42
1.0000
  0
VERTEX
  8
16
 10
19.0500
 20
40.0050
 30
0.0000
  0
VERTEX
  8
16
 10
19.0500
 20
41.9100
 30
0.0000
 42
1.0000
  0
SEQEND
  8
0
  0
POLYLINE
  8
16
 66
1
 10
0.0000
 20
0.0000
 30
0.0000
 40
0.0000
 41
0.0000
 70
1
  0
VERTEX
  8
16
 10
17.9660
 20
39.5560
 30
0.0000
  0
VERTEX
  8
16
 10
24.3160
 20
33.2060
 30
0.0000
 42
1.0000
  0
VERTEX
  8
16
 10
25.2140
 20
34.1040
 30
0.0000
  0
VERTEX
  8
16
 10
18.8640
 20
40.4540
 30
0.0000
 42
1.0000
  0
SEQEND
  8
0
  0
POLYLINE
  8
16
 66
1
 10
0.0000
 20
0.0000
 30
0.0000
 40
0.0000
 41
0.0000
 70
1
  0
VERTEX
  8
16
 10
24.7650
 20
33.0200
 30
0.0000
  0
VERTEX
  8
16
 10
27.9400
 20
33.0200
 30
0.0000
 42
1.0000
  0
VERTEX
  8
16
 10
27.9400
 20
34.2900
 30
0.0000
  0
VERTEX
  8
16
 10
24.7650
 20
34.2900
 30
0.0000
 42
1.0000
  0
SEQEND
  8
0
  0
POLYLINE
  8
16
 66
1
 10
0.0000
 20
0.0000
 30
0.0000
 40
0.0000
 41
0.0000
 70
1
  0
VERTEX
  8
16
 10
27.9400
 20
33.0200
 30
0.0000
  0
VERTEX
  8
16
 10
34.2900
 20
33.0200
 30
0.0000
 42
1.0000
  0
VERTEX
  8
16
 10
34.2900
 20
34.2900
 30
0.0000
  0
VERTEX
  8
16
 10
27.9400
 20
34.2900
 30
0.0000
 42
1.0000
  0
SEQEND
  8
0
  0
POLYLINE
  8
16
 66
1
 10
0.0000
 20
0.0000
 30
0.0000
 40
0.0000
 41
0.0000
 70
1
  0
VERTEX
  8
16
 10
23.3090
 20
28.1260
 30
0.0000
  0
VERTEX
  8
16
 10
28.3890
 20
33.2060
 30
0.0000
 42
1.0000
  0
VERTEX
  8
16
 10
27.4910
 20
34.1040
 30
0.0000
  0
VERTEX
  8
16
 10
22.4110
 20
29.0240
 30
0.0000
 42
1.0000
  0
SEQEND
  8
0
  0
POLYLINE
  8
16
 66
1
 10
0.0000
 20
0.0000
 30
0.0000
 40
0.0000
 41
0.0000
 70
1
  0
VERTEX
  8
16
 10
34.7390
 20
33.2060
 30
0.0000
  0
VERTEX
  8
16
 10
40.4540
 20
38.9210
 30
0.0000
 42
1.0000
  0
VERTEX
  8
16
 10
39.5560
 20
39.8190
 30
0.0000
  0
VERTEX
  8
16
 10
33.8410
 20
34.1040
 30
0.0000
 42
1.0000
  0
SEQEND
  8
0
  0
POLYLINE
  8
16
 66
1
 10
0.0000
 20
0.0000
 30
0.0000
 40
0.0000
 41
0.0000
 70
1
  0
VERTEX
  8
16
 10
40.6400
 20
39.3700
 30
0.0000
  0
VERTEX
  8
16
 10
40.6400
 20
43.1800
 30
0.0000
 42
1.0000
  0
VERTEX
  8
16
 10
39.3700
 20
43.1800
 30
0.0000
  0
VERTEX
  8
16
 10
39.3700
 20
39.3700
 30
0.0000
 42
1.0000
  0
SEQEND
  8
0
  0
POLYLINE
  8
16
 66
1
 10
0.0000
 20
0.0000
 30
0.0000
 40
0.0000
 41
0.0000
 70
1
  0
VERTEX
  8
16
 10
62.8650
 20
27.3050
 30
0.0000
  0
VERTEX
  8
16
 10
46.9900
 20
27.3050
 30
0.0000
 42
1.0000
  0
VERTEX
  8
16
 10
46.9900
 20
26.0350
 30
0.0000
  0
VERTEX
  8
16
 10
62.8650
 20
26.0350
 30
0.0000
 42
1.0000
  0
SEQEND
  8
0
  0
POLYLINE
  8
16
 66
1
 10
0.0000
 20
0.0000
 30
0.0000
 40
0.0000
 41
0.0000
 70
1
  0
VERTEX
  8
16
 10
46.5410
 20
27.1190
 30
0.0000
  0
VERTEX
  8
16
 10
40.8260
 20
21.4040
 30
0.0000
 42
1.0000
  0
VERTEX
  8
16
 10
41.7240
 20
20.5060
 30
0.0000
  0
VERTEX
  8
16
 10
47.4390
 20
26.2210
 30
0.0000
 42
1.0000
  0
SEQEND
  8
0
  0
POLYLINE
  8
16
 66
1
 10
0.0000
 20
0.0000
 30
0.0000
 40
0.0000
 41
0.0000
 70
1
  0
VERTEX
  8
16
 10
41.2750
 20
21.5900
 30
0.0000
  0
VERTEX
  8
16
 10
17.7800
 20
21.5900
 30
0.0000
 42
1.0000
  0
VERTEX
  8
16
 10
17.7800
 20
20.3200
 30
0.0000
  0
VERTEX
  8
16
 10
41.2750
 20
20.3200
 30
0.0000
 42
1.0000
  0
SEQEND
  8
0
  0
POLYLINE
  8
16
 66
1
 10
0.0000
 20
0.0000
 30
0.0000
 40
0.0000
 41
0.0000
 70
1
  0
VERTEX
  8
16
 10
18.2290
 20
21.4040
 30
0.0000
  0
VERTEX
  8
16
 10
16.3240
 20
23.3090
 30
0.0000
 42
1.0000
  0
VERTEX
  8
16
 10
15.4260
 20
22.4110
 30
0.0000
  0
VERTEX
  8
16
 10
17.3310
 20
20.5060
 30
0.0000
 42
1.0000
  0
SEQEND
  8
0
  0
POLYLINE
  8
16
 66
1
 10
0.0000
 20
0.0000
 30
0.0000
 40
0.0000
 41
0.0000
 70
1
  0
VERTEX
  8
16
 10
16.3240
 20
26.2210
 30
0.0000
  0
VERTEX
  8
16
 10
18.2290
 20
28.1260
 30
0.0000
 42
1.0000
  0
VERTEX
  8
16
 10
17.3310
 20
29.0240
 30
0.0000
  0
VERTEX
  8
16
 10
15.4260
 20
27.1190
 30
0.0000
 42
1.0000
  0
SEQEND
  8
0
  0
POLYLINE
  8
16
 66
1
 10
0.0000
 20
0.0000
 30
0.0000
 40
0.0000
 41
0.0000
 70
1
  0
VERTEX
  8
16
 10
17.7800
 20
27.9400
 30
0.0000
  0
VERTEX
  8
16
 10
19.0500
 20
27.9400
 30
0.0000
 42
1.0000
  0
VERTEX
  8
16
 10
19.0500
 20
29.2100
 30
0.0000
  0
VERTEX
  8
16
 10
17.7800
 20
29.2100
 30
0.0000
 42
1.0000
  0
SEQEND
  8
0
  0
POLYLINE
  8
16
 66
1
 10
0.0000
 20
0.0000
 30
0.0000
 40
0.0000
 41
0.0000
 70
1
  0
VERTEX
  8
16
 10
16.5100
 20
22.8600
 30
0.0000
  0
VERTEX
  8
16
 10
16.5100
 20
26.6700
 30
0.0000
 42
1.0000
  0
VERTEX
  8
16
 10
15.2400
 20
26.6700
 30
0.0000
  0
VERTEX
  8
16
 10
15.2400
 20
22.8600
 30
0.0000
 42
1.0000
  0
SEQEND
  8
0
  0
POLYLINE
  8
1
 66
1
 10
0.0000
 20
0.0000
 30
0.0000
 40
0.0000
 41
0.0000
 70
1
  0
VERTEX
  8
1
 10
50.2668
 20
16.7640
 30
0.0000
  0
VERTEX
  8
1
 10
50.2668
 20
14.3000
 30
0.0000
 42
1.0000
  0
VERTEX
  8
1
 10
50.6732
 20
14.3000
 30
0.0000
  0
VERTEX
  8
1
 10
50.6732
 20
16.7640
 30
0.0000
 42
1.0000
  0
SEQEND
  8
0
  0
POLYLINE
  8
1
 66
1
 10
0.0000
 20
0.0000
 30
0.0000
 40
0.0000
 41
0.0000
 70
1
  0
VERTEX
  8
1
 10
50.3263
 20
14.1563
 30
0.0000
  0
VERTEX
  8
1
 10
51.2913
 20
13.1913
 30
0.0000
 42
1.0000
  0
VERTEX
  8
1
 10
51.5787
 20
13.4787
 30
0.0000
  0
VERTEX
  8
1
 10
50.6137
 20
14.4437
 30
0.0000
 42
1.0000
  0
SEQEND
  8
0
  0
POLYLINE
  8
1
 66
1
 10
0.0000
 20
0.0000
 30
0.0000
 40
0.0000
 41
0.0000
 70
1
  0
VERTEX
  8
1
 10
51.4350
 20
13.1318
 30
0.0000
  0
VERTEX
  8
1
 10
52.7050
 20
13.1318
 30
0.0000
 42
1.0000
  0
VERTEX
  8
1
 10
52.7050
 20
13.5382
 30
0.0000
  0
VERTEX
  8
1
 10
51.4350
 20
13.5382
 30
0.0000
 42
1.0000
  0
SEQEND
  8
0
  0
POLYLINE
  8
1
 66
1
 10
0.0000
 20
0.0000
 30
0.0000
 40
0.0000
 41
0.0000
 70
1
  0
VERTEX
  8
1
 10
52.7050
 20
12.7000
 30
0.0000
  0
VERTEX
  8
1
 10
59.6900
 20
12.7000
 30
0.0000
 42
1.0000
  0
VERTEX
  8
1
 10
59.6900
 20
13.9700
 30
0.0000
  0
VERTEX
  8
1
 10
52.7050
 20
13.9700
 30
0.0000
 42
1.0000
  0
SEQEND
  8
0
  0
POLYLINE
  8
1
 66
1
 10
0.0000
 20
0.0000
 30
0.0000
 40
0.0000
 41
0.0000
 70
1
  0
VERTEX
  8
1
 10
66.6750
 20
19.6850
 30
0.0000
  0
VERTEX
  8
1
 10
66.6750
 20
25.4000
 30
0.0000
 42
1.0000
  0
VERTEX
  8
1
 10
65.4050
 20
25.4000
 30
0.0000
  0
VERTEX
  8
1
 10
65.4050
 20
19.6850
 30
0.0000
 42
1.0000
  0
SEQEND
  8
0
  0
POLYLINE
  8
1
 66
1
 10
0.0000
 20
0.0000
 30
0.0000
 40
0.0000
 41
0.0000
 70
1
  0
VERTEX
  8
1
 10
66.4890
 20
25.8490
 30
0.0000
  0
VERTEX
  8
1
 10
65.2190
 20
27.1190
 30
0.0000
 42
1.0000
  0
VERTEX
  8
1
 10
64.3210
 20
26.2210
 30
0.0000
  0
VERTEX
  8
1
 10
65.5910
 20
24.9510
 30
0.0000
 42
1.0000
  0
SEQEND
  8
0
  0
POLYLINE
  8
1
 66
1
 10
0.0000
 20
0.0000
 30
0.0000
 40
0.0000
 41
0.0000
 70
1
  0
VERTEX
  8
1
 10
60.1390
 20
12.8860
 30
0.0000
  0
VERTEX
  8
1
 10
66.4890
 20
19.2360
 30
0.0000
 42
1.0000
  0
VERTEX
  8
1
 10
65.5910
 20
20.1340
 30
0.0000
  0
VERTEX
  8
1
 10
59.2410
 20
13.7840
 30
0.0000
 42
1.0000
  0
SEQEND
  8
0
  0
POLYLINE
  8
1
 66
1
 10
0.0000
 20
0.0000
 30
0.0000
 40
0.0000
 41
0.0000
 70
1
  0
VERTEX
  8
1
 10
64.7700
 20
27.3050
 30
0.0000
  0
VERTEX
  8
1
 10
62.8650
 20
27.3050
 30
0.0000
 42
1.0000
  0
VERTEX
  8
1
 10
62.8650
 20
26.0350
 30
0.0000
  0
VERTEX
  8
1
 10
64.7700
 20
26.0350
 30
0.0000
 42
1.0000
  0
SEQEND
  8
0
  0
POLYLINE
  8
16
 66
1
 10
0.0000
 20
0.0000
 30
0.0000
 40
0.0000
 41
0.0000
 70
1
  0
VERTEX
  8
16
 10
40.4540
 20
43.6290
 30
0.0000
  0
VERTEX
  8
16
 10
39.1840
 20
44.8990
 30
0.0000
 42
1.0000
  0
VERTEX
  8
16
 10
38.2860
 20
44.0010
 30
0.0000
  0
VERTEX
  8
16
 10
39.5560
 20
42.7310
 30
0.0000
 42
1.0000
  0
SEQEND
  8
0
  0
POLYLINE
  8
16
 66
1
 10
0.0000
 20
0.0000
 30
0.0000
 40
0.0000
 41
0.0000
 70
1
  0
VERTEX
  8
16
 10
38.7350
 20
45.0850
 30
0.0000
  0
VERTEX
  8
16
 10
36.1950
 20
45.0850
 30
0.0000
 42
1.0000
  0
VERTEX
  8
16
 10
36.1950
 20
43.8150
 30
0.0000
  0
VERTEX
  8
16
 10
38.7350
 20
43.8150
 30
0.0000
 42
1.0000
  0
SEQEND
  8
0
  0
POLYLINE
  8
16
 66
1
 10
0.0000
 20
0.0000
 30
0.0000
 40
0.0000
 41
0.0000
 70
1
  0
VERTEX
  8
16
 10
19.0500
 20
27.9400
 30
0.0000
  0
VERTEX
  8
16
 10
22.8600
 20
27.9400
 30
0.0000
 42
1.0000
  0
VERTEX
  8
16
 10
22.8600
 20
29.2100
 30
0.0000
  0
VERTEX
  8
16
 10
19.0500
 20
29.2100
 30
0.0000
 42
1.0000
  0
SEQEND
  8
0
  0
POLYLINE
  8
16
 66
1
 10
0.0000
 20
0.0000
 30
0.0000
 40
0.0000
 41
0.0000
 70
1
  0
VERTEX
  8
16
 10
22.8600
 20
74.9300
 30
0.0000
  0
VERTEX
  8
16
 10
22.8600
 20
69.8500
 30
0.0000
 42
1.0000
  0
VERTEX
  8
16
 10
24.1300
 20
69.8500
 30
0.0000
  0
VERTEX
  8
16
 10
24.1300
 20
74.9300
 30
0.0000
 42
1.0000
  0
SEQEND
  8
0
  0
POLYLINE
  8
16
 66
1
 10
0.0000
 20
0.0000
 30
0.0000
 40
0.0000
 41
0.0000
 70
1
  0
VERTEX
  8
16
 10
22.8600
 20
69.8500
 30
0.0000
  0
VERTEX
  8
16
 10
22.8600
 20
64.7700
 30
0.0000
 42
1.0000
  0
VERTEX
  8
16
 10
24.1300
 20
64.7700
 30
0.0000
  0
VERTEX
  8
16
 10
24.1300
 20
69.8500
 30
0.0000
 42
1.0000
  0
SEQEND
  8
0
  0
POLYLINE
  8
16
 66
1
 10
0.0000
 20
0.0000
 30
0.0000
 40
0.0000
 41
0.0000
 70
1
  0
VERTEX
  8
16
 10
22.8600
 20
64.7700
 30
0.0000
  0
VERTEX
  8
16
 10
22.8600
 20
59.6900
 30
0.0000
 42
1.0000
  0
VERTEX
  8
16
 10
24.1300
 20
59.6900
 30
0.0000
  0
VERTEX
  8
16
 10
24.1300
 20
64.7700
 30
0.0000
 42
1.0000
  0
SEQEND
  8
0
  0
POLYLINE
  8
16
 66
1
 10
0.0000
 20
0.0000
 30
0.0000
 40
0.0000
 41
0.0000
 70
1
  0
VERTEX
  8
16
 10
22.8600
 20
59.6900
 30
0.0000
  0
VERTEX
  8
16
 10
22.8600
 20
54.6100
 30
0.0000
 42
1.0000
  0
VERTEX
  8
16
 10
24.1300
 20
54.6100
 30
0.0000
  0
VERTEX
  8
16
 10
24.1300
 20
59.6900
 30
0.0000
 42
1.0000
  0
SEQEND
  8
0
  0
POLYLINE
  8
16
 66
1
 10
0.0000
 20
0.0000
 30
0.0000
 40
0.0000
 41
0.0000
 70
1
  0
VERTEX
  8
16
 10
22.8600
 20
54.6100
 30
0.0000
  0
VERTEX
  8
16
 10
22.8600
 20
49.5300
 30
0.0000
 42
1.0000
  0
VERTEX
  8
16
 10
24.1300
 20
49.5300
 30
0.0000
  0
VERTEX
  8
16
 10
24.1300
 20
54.6100
 30
0.0000
 42
1.0000
  0
SEQEND
  8
0
  0
POLYLINE
  8
16
 66
1
 10
0.0000
 20
0.0000
 30
0.0000
 40
0.0000
 41
0.0000
 70
1
  0
VERTEX
  8
16
 10
22.8600
 20
49.5300
 30
0.0000
  0
VERTEX
  8
16
 10
22.8600
 20
44.4500
 30
0.0000
 42
1.0000
  0
VERTEX
  8
16
 10
24.1300
 20
44.4500
 30
0.0000
  0
VERTEX
  8
16
 10
24.1300
 20
49.5300
 30
0.0000
 42
1.0000
  0
SEQEND
  8
0
  0
POLYLINE
  8
16
 66
1
 10
0.0000
 20
0.0000
 30
0.0000
 40
0.0000
 41
0.0000
 70
1
  0
VERTEX
  8
16
 10
22.8600
 20
44.4500
 30
0.0000
  0
VERTEX
  8
16
 10
22.8600
 20
39.3700
 30
0.0000
 42
1.0000
  0
VERTEX
  8
16
 10
24.1300
 20
39.3700
 30
0.0000
  0
VERTEX
  8
16
 10
24.1300
 20
44.4500
 30
0.0000
 42
1.0000
  0
SEQEND
  8
0
  0
POLYLINE
  8
16
 66
1
 10
0.0000
 20
0.0000
 30
0.0000
 40
0.0000
 41
0.0000
 70
1
  0
VERTEX
  8
16
 10
35.5600
 20
41.2750
 30
0.0000
  0
VERTEX
  8
16
 10
36.1950
 20
41.2750
 30
0.0000
 42
1.0000
  0
VERTEX
  8
16
 10
36.1950
 20
42.5450
 30
0.0000
  0
VERTEX
  8
16
 10
35.5600
 20
42.5450
 30
0.0000
 42
1.0000
  0
SEQEND
  8
0
  0
POLYLINE
  8
16
 66
1
 10
0.0000
 20
0.0000
 30
0.0000
 40
0.0000
 41
0.0000
 70
1
  0
VERTEX
  8
16
 10
30.2940
 20
35.7460
 30
0.0000
  0
VERTEX
  8
16
 10
36.0090
 20
41.4610
 30
0.0000
 42
1.0000
  0
VERTEX
  8
16
 10
35.1110
 20
42.3590
 30
0.0000
  0
VERTEX
  8
16
 10
29.3960
 20
36.6440
 30
0.0000
 42
1.0000
  0
SEQEND
  8
0
  0
POLYLINE
  8
16
 66
1
 10
0.0000
 20
0.0000
 30
0.0000
 40
0.0000
 41
0.0000
 70
1
  0
VERTEX
  8
16
 10
24.1300
 20
74.9300
 30
0.0000
  0
VERTEX
  8
16
 10
24.1300
 20
77.4700
 30
0.0000
 42
1.0000
  0
VERTEX
  8
16
 10
22.8600
 20
77.4700
 30
0.0000
  0
VERTEX
  8
16
 10
22.8600
 20
74.9300
 30
0.0000
 42
1.0000
  0
SEQEND
  8
0
  0
POLYLINE
  8
16
 66
1
 10
0.0000
 20
0.0000
 30
0.0000
 40
0.0000
 41
0.0000
 70
1
  0
VERTEX
  8
16
 10
23.9440
 20
77.9190
 30
0.0000
  0
VERTEX
  8
16
 10
21.4040
 20
80.4590
 30
0.0000
 42
1.0000
  0
VERTEX
  8
16
 10
20.5060
 20
79.5610
 30
0.0000
  0
VERTEX
  8
16
 10
23.0460
 20
77.0210
 30
0.0000
 42
1.0000
  0
SEQEND
  8
0
  0
POLYLINE
  8
16
 66
1
 10
0.0000
 20
0.0000
 30
0.0000
 40
0.0000
 41
0.0000
 70
1
  0
VERTEX
  8
16
 10
20.9550
 20
80.6450
 30
0.0000
  0
VERTEX
  8
16
 10
17.7800
 20
80.6450
 30
0.0000
 42
1.0000
  0
VERTEX
  8
16
 10
17.7800
 20
79.3750
 30
0.0000
  0
VERTEX
  8
16
 10
20.9550
 20
79.3750
 30
0.0000
 42
1.0000
  0
SEQEND
  8
0
  0
POLYLINE
  8
16
 66
1
 10
0.0000
 20
0.0000
 30
0.0000
 40
0.0000
 41
0.0000
 70
1
  0
VERTEX
  8
16
 10
17.3310
 20
80.4590
 30
0.0000
  0
VERTEX
  8
16
 10
15.4260
 20
78.5540
 30
0.0000
 42
1.0000
  0
VERTEX
  8
16
 10
16.3240
 20
77.6560
 30
0.0000
  0
VERTEX
  8
16
 10
18.2290
 20
79.5610
 30
0.0000
 42
1.0000
  0
SEQEND
  8
0
  0
POLYLINE
  8
16
 66
1
 10
0.0000
 20
0.0000
 30
0.0000
 40
0.0000
 41
0.0000
 70
1
  0
VERTEX
  8
16
 10
15.2400
 20
78.1050
 30
0.0000
  0
VERTEX
  8
16
 10
15.2400
 20
33.6550
 30
0.0000
 42
1.0000
  0
VERTEX
  8
16
 10
16.5100
 20
33.6550
 30
0.0000
  0
VERTEX
  8
16
 10
16.5100
 20
78.1050
 30
0.0000
 42
1.0000
  0
SEQEND
  8
0
  0
POLYLINE
  8
16
 66
1
 10
0.0000
 20
0.0000
 30
0.0000
 40
0.0000
 41
0.0000
 70
1
  0
VERTEX
  8
16
 10
18.4150
 20
30.4800
 30
0.0000
  0
VERTEX
  8
16
 10
19.0500
 20
30.4800
 30
0.0000
 42
1.0000
  0
VERTEX
  8
16
 10
19.0500
 20
31.7500
 30
0.0000
  0
VERTEX
  8
16
 10
18.4150
 20
31.7500
 30
0.0000
 42
1.0000
  0
SEQEND
  8
0
  0
POLYLINE
  8
16
 66
1
 10
0.0000
 20
0.0000
 30
0.0000
 40
0.0000
 41
0.0000
 70
1
  0
VERTEX
  8
16
 10
15.4260
 20
33.2060
 30
0.0000
  0
VERTEX
  8
16
 10
17.9660
 20
30.6660
 30
0.0000
 42
1.0000
  0
VERTEX
  8
16
 10
18.8640
 20
31.5640
 30
0.0000
  0
VERTEX
  8
16
 10
16.3240
 20
34.1040
 30
0.0000
 42
1.0000
  0
SEQEND
  8
0
  0
POLYLINE
  8
16
 66
1
 10
0.0000
 20
0.0000
 30
0.0000
 40
0.0000
 41
0.0000
 70
1
  0
VERTEX
  8
16
 10
47.8110
 20
24.5790
 30
0.0000
  0
VERTEX
  8
16
 10
42.7310
 20
19.4990
 30
0.0000
 42
1.0000
  0
VERTEX
  8
16
 10
43.6290
 20
18.6010
 30
0.0000
  0
VERTEX
  8
16
 10
48.7090
 20
23.6810
 30
0.0000
 42
1.0000
  0
SEQEND
  8
0
  0
POLYLINE
  8
16
 66
1
 10
0.0000
 20
0.0000
 30
0.0000
 40
0.0000
 41
0.0000
 70
1
  0
VERTEX
  8
16
 10
43.1800
 20
19.6850
 30
0.0000
  0
VERTEX
  8
16
 10
17.1450
 20
19.6850
 30
0.0000
 42
1.0000
  0
VERTEX
  8
16
 10
17.1450
 20
18.4150
 30
0.0000
  0
VERTEX
  8
16
 10
43.1800
 20
18.4150
 30
0.0000
 42
1.0000
  0
SEQEND
  8
0
  0
POLYLINE
  8
16
 66
1
 10
0.0000
 20
0.0000
 30
0.0000
 40
0.0000
 41
0.0000
 70
1
  0
VERTEX
  8
16
 10
17.5940
 20
19.4990
 30
0.0000
  0
VERTEX
  8
16
 10
14.4190
 20
22.6740
 30
0.0000
 42
1.0000
  0
VERTEX
  8
16
 10
13.5210
 20
21.7760
 30
0.0000
  0
VERTEX
  8
16
 10
16.6960
 20
18.6010
 30
0.0000
 42
1.0000
  0
SEQEND
  8
0
  0
POLYLINE
  8
16
 66
1
 10
0.0000
 20
0.0000
 30
0.0000
 40
0.0000
 41
0.0000
 70
1
  0
VERTEX
  8
16
 10
14.6050
 20
22.2250
 30
0.0000
  0
VERTEX
  8
16
 10
14.6050
 20
29.2100
 30
0.0000
 42
1.0000
  0
VERTEX
  8
16
 10
13.3350
 20
29.2100
 30
0.0000
  0
VERTEX
  8
16
 10
13.3350
 20
22.2250
 30
0.0000
 42
1.0000
  0
SEQEND
  8
0
  0
POLYLINE
  8
16
 66
1
 10
0.0000
 20
0.0000
 30
0.0000
 40
0.0000
 41
0.0000
 70
1
  0
VERTEX
  8
16
 10
14.4190
 20
28.7610
 30
0.0000
  0
VERTEX
  8
16
 10
16.3240
 20
30.6660
 30
0.0000
 42
1.0000
  0
VERTEX
  8
16
 10
15.4260
 20
31.5640
 30
0.0000
  0
VERTEX
  8
16
 10
13.5210
 20
29.6590
 30
0.0000
 42
1.0000
  0
SEQEND
  8
0
  0
POLYLINE
  8
16
 66
1
 10
0.0000
 20
0.0000
 30
0.0000
 40
0.0000
 41
0.0000
 70
1
  0
VERTEX
  8
16
 10
15.8750
 20
30.4800
 30
0.0000
  0
VERTEX
  8
16
 10
19.0500
 20
30.4800
 30
0.0000
 42
1.0000
  0
VERTEX
  8
16
 10
19.0500
 20
31.7500
 30
0.0000
  0
VERTEX
  8
16
 10
15.8750
 20
31.7500
 30
0.0000
 42
1.0000
  0
SEQEND
  8
0
  0
POLYLINE
  8
16
 66
1
 10
0.0000
 20
0.0000
 30
0.0000
 40
0.0000
 41
0.0000
 70
1
  0
VERTEX
  8
16
 10
62.8650
 20
24.7650
 30
0.0000
  0
VERTEX
  8
16
 10
48.2600
 20
24.7650
 30
0.0000
 42
1.0000
  0
VERTEX
  8
16
 10
48.2600
 20
23.4950
 30
0.0000
  0
VERTEX
  8
16
 10
62.8650
 20
23.4950
 30
0.0000
 42
1.0000
  0
SEQEND
  8
0
  0
POLYLINE
  8
16
 66
1
 10
0.0000
 20
0.0000
 30
0.0000
 40
0.0000
 41
0.0000
 70
1
  0
VERTEX
  8
16
 10
23.0460
 20
37.6510
 30
0.0000
  0
VERTEX
  8
16
 10
24.9510
 20
35.7460
 30
0.0000
 42
1.0000
  0
VERTEX
  8
16
 10
25.8490
 20
36.6440
 30
0.0000
  0
VERTEX
  8
16
 10
23.9440
 20
38.5490
 30
0.0000
 42
1.0000
  0
SEQEND
  8
0
  0
POLYLINE
  8
16
 66
1
 10
0.0000
 20
0.0000
 30
0.0000
 40
0.0000
 41
0.0000
 70
1
  0
VERTEX
  8
16
 10
25.4000
 20
35.5600
 30
0.0000
  0
VERTEX
  8
16
 10
29.8450
 20
35.5600
 30
0.0000
 42
1.0000
  0
VERTEX
  8
16
 10
29.8450
 20
36.8300
 30
0.0000
  0
VERTEX
  8
16
 10
25.4000
 20
36.8300
 30
0.0000
 42
1.0000
  0
SEQEND
  8
0
  0
POLYLINE
  8
1
 66
1
 10
0.0000
 20
0.0000
 30
0.0000
 40
0.0000
 41
0.0000
 70
1
  0
VERTEX
  8
1
 10
53.8732
 20
16.7640
 30
0.0000
  0
VERTEX
  8
1
 10
53.8732
 20
20.6250
 30
0.0000
 42
1.0000
  0
VERTEX
  8
1
 10
53.4668
 20
20.6250
 30
0.0000
  0
VERTEX
  8
1
 10
53.4668
 20
16.7640
 30
0.0000
 42
1.0000
  0
SEQEND
  8
0
  0
POLYLINE
  8
1
 66
1
 10
0.0000
 20
0.0000
 30
0.0000
 40
0.0000
 41
0.0000
 70
1
  0
VERTEX
  8
1
 10
53.8137
 20
20.7687
 30
0.0000
  0
VERTEX
  8
1
 10
53.4837
 20
21.0987
 30
0.0000
 42
1.0000
  0
VERTEX
  8
1
 10
53.1963
 20
20.8113
 30
0.0000
  0
VERTEX
  8
1
 10
53.5263
 20
20.4813
 30
0.0000
 42
1.0000
  0
SEQEND
  8
0
  0
POLYLINE
  8
1
 66
1
 10
0.0000
 20
0.0000
 30
0.0000
 40
0.0000
 41
0.0000
 70
1
  0
VERTEX
  8
1
 10
53.9750
 20
20.9550
 30
0.0000
  0
VERTEX
  8
1
 10
53.9750
 20
24.1300
 30
0.0000
 42
1.0000
  0
VERTEX
  8
1
 10
52.7050
 20
24.1300
 30
0.0000
  0
VERTEX
  8
1
 10
52.7050
 20
20.9550
 30
0.0000
 42
1.0000
  0
SEQEND
  8
0
  0
POLYLINE
  8
16
 66
1
 10
0.0000
 20
0.0000
 30
0.0000
 40
0.0000
 41
0.0000
 70
1
  0
VERTEX
  8
16
 10
22.8600
 20
39.3700
 30
0.0000
  0
VERTEX
  8
16
 10
22.8600
 20
38.1000
 30
0.0000
 42
1.0000
  0
VERTEX
  8
16
 10
24.1300
 20
38.1000
 30
0.0000
  0
VERTEX
  8
16
 10
24.1300
 20
39.3700
 30
0.0000
 42
1.0000
  0
SEQEND
  8
0
  0
POLYLINE
  8
16
 66
1
 10
0.0000
 20
0.0000
 30
0.0000
 40
0.0000
 41
0.0000
 70
1
  0
VERTEX
  8
16
 10
25.4000
 20
77.4700
 30
0.0000
  0
VERTEX
  8
16
 10
25.4000
 20
74.9300
 30
0.0000
 42
1.0000
  0
VERTEX
  8
16
 10
26.6700
 20
74.9300
 30
0.0000
  0
VERTEX
  8
16
 10
26.6700
 20
77.4700
 30
0.0000
 42
1.0000
  0
SEQEND
  8
0
  0
POLYLINE
  8
16
 66
1
 10
0.0000
 20
0.0000
 30
0.0000
 40
0.0000
 41
0.0000
 70
1
  0
VERTEX
  8
16
 10
26.0350
 20
74.2950
 30
0.0000
  0
VERTEX
  8
16
 10
27.3050
 20
74.2950
 30
0.0000
 42
1.0000
  0
VERTEX
  8
16
 10
27.3050
 20
75.5650
 30
0.0000
  0
VERTEX
  8
16
 10
26.0350
 20
75.5650
 30
0.0000
 42
1.0000
  0
SEQEND
  8
0
  0
POLYLINE
  8
16
 66
1
 10
0.0000
 20
0.0000
 30
0.0000
 40
0.0000
 41
0.0000
 70
1
  0
VERTEX
  8
16
 10
26.8560
 20
74.4810
 30
0.0000
  0
VERTEX
  8
16
 10
28.1260
 20
73.2110
 30
0.0000
 42
1.0000
  0
VERTEX
  8
16
 10
29.0240
 20
74.1090
 30
0.0000
  0
VERTEX
  8
16
 10
27.7540
 20
75.3790
 30
0.0000
 42
1.0000
  0
SEQEND
  8
0
  0
POLYLINE
  8
16
 66
1
 10
0.0000
 20
0.0000
 30
0.0000
 40
0.0000
 41
0.0000
 70
1
  0
VERTEX
  8
16
 10
29.8450
 20
69.2150
 30
0.0000
  0
VERTEX
  8
16
 10
36.1950
 20
69.2150
 30
0.0000
 42
1.0000
  0
VERTEX
  8
16
 10
36.1950
 20
70.4850
 30
0.0000
  0
VERTEX
  8
16
 10
29.8450
 20
70.4850
 30
0.0000
 42
1.0000
  0
SEQEND
  8
0
  0
POLYLINE
  8
16
 66
1
 10
0.0000
 20
0.0000
 30
0.0000
 40
0.0000
 41
0.0000
 70
1
  0
VERTEX
  8
16
 10
27.9400
 20
73.6600
 30
0.0000
  0
VERTEX
  8
16
 10
27.9400
 20
71.1200
 30
0.0000
 42
1.0000
  0
VERTEX
  8
16
 10
29.2100
 20
71.1200
 30
0.0000
  0
VERTEX
  8
16
 10
29.2100
 20
73.6600
 30
0.0000
 42
1.0000
  0
SEQEND
  8
0
  0
POLYLINE
  8
16
 66
1
 10
0.0000
 20
0.0000
 30
0.0000
 40
0.0000
 41
0.0000
 70
1
  0
VERTEX
  8
16
 10
28.1260
 20
70.6710
 30
0.0000
  0
VERTEX
  8
16
 10
29.3960
 20
69.4010
 30
0.0000
 42
1.0000
  0
VERTEX
  8
16
 10
30.2940
 20
70.2990
 30
0.0000
  0
VERTEX
  8
16
 10
29.0240
 20
71.5690
 30
0.0000
 42
1.0000
  0
SEQEND
  8
0
  0
POLYLINE
  8
16
 66
1
 10
0.0000
 20
0.0000
 30
0.0000
 40
0.0000
 41
0.0000
 70
1
  0
VERTEX
  8
16
 10
26.6700
 20
69.8500
 30
0.0000
  0
VERTEX
  8
16
 10
26.6700
 20
72.3900
 30
0.0000
 42
1.0000
  0
VERTEX
  8
16
 10
25.4000
 20
72.3900
 30
0.0000
  0
VERTEX
  8
16
 10
25.4000
 20
69.8500
 30
0.0000
 42
1.0000
  0
SEQEND
  8
0
  0
POLYLINE
  8
16
 66
1
 10
0.0000
 20
0.0000
 30
0.0000
 40
0.0000
 41
0.0000
 70
1
  0
VERTEX
  8
16
 10
26.0350
 20
69.2150
 30
0.0000
  0
VERTEX
  8
16
 10
26.6700
 20
69.2150
 30
0.0000
 42
1.0000
  0
VERTEX
  8
16
 10
26.6700
 20
70.4850
 30
0.0000
  0
VERTEX
  8
16
 10
26.0350
 20
70.4850
 30
0.0000
 42
1.0000
  0
SEQEND
  8
0
  0
POLYLINE
  8
16
 66
1
 10
0.0000
 20
0.0000
 30
0.0000
 40
0.0000
 41
0.0000
 70
1
  0
VERTEX
  8
16
 10
26.2210
 20
69.4010
 30
0.0000
  0
VERTEX
  8
16
 10
28.7610
 20
66.8610
 30
0.0000
 42
1.0000
  0
VERTEX
  8
16
 10
29.6590
 20
67.7590
 30
0.0000
  0
VERTEX
  8
16
 10
27.1190
 20
70.2990
 30
0.0000
 42
1.0000
  0
SEQEND
  8
0
  0
POLYLINE
  8
16
 66
1
 10
0.0000
 20
0.0000
 30
0.0000
 40
0.0000
 41
0.0000
 70
1
  0
VERTEX
  8
16
 10
29.2100
 20
66.6750
 30
0.0000
  0
VERTEX
  8
16
 10
36.1950
 20
66.6750
 30
0.0000
 42
1.0000
  0
VERTEX
  8
16
 10
36.1950
 20
67.9450
 30
0.0000
  0
VERTEX
  8
16
 10
29.2100
 20
67.9450
 30
0.0000
 42
1.0000
  0
SEQEND
  8
0
  0
POLYLINE
  8
16
 66
1
 10
0.0000
 20
0.0000
 30
0.0000
 40
0.0000
 41
0.0000
 70
1
  0
VERTEX
  8
16
 10
26.6700
 20
64.7700
 30
0.0000
  0
VERTEX
  8
16
 10
26.6700
 20
67.3100
 30
0.0000
 42
1.0000
  0
VERTEX
  8
16
 10
25.4000
 20
67.3100
 30
0.0000
  0
VERTEX
  8
16
 10
25.4000
 20
64.7700
 30
0.0000
 42
1.0000
  0
SEQEND
  8
0
  0
POLYLINE
  8
16
 66
1
 10
0.0000
 20
0.0000
 30
0.0000
 40
0.0000
 41
0.0000
 70
1
  0
VERTEX
  8
16
 10
36.1950
 20
65.4050
 30
0.0000
  0
VERTEX
  8
16
 10
26.0350
 20
65.4050
 30
0.0000
 42
1.0000
  0
VERTEX
  8
16
 10
26.0350
 20
64.1350
 30
0.0000
  0
VERTEX
  8
16
 10
36.1950
 20
64.1350
 30
0.0000
 42
1.0000
  0
SEQEND
  8
0
  0
POLYLINE
  8
16
 66
1
 10
0.0000
 20
0.0000
 30
0.0000
 40
0.0000
 41
0.0000
 70
1
  0
VERTEX
  8
16
 10
26.6700
 20
59.6900
 30
0.0000
  0
VERTEX
  8
16
 10
26.6700
 20
62.2300
 30
0.0000
 42
1.0000
  0
VERTEX
  8
16
 10
25.4000
 20
62.2300
 30
0.0000
  0
VERTEX
  8
16
 10
25.4000
 20
59.6900
 30
0.0000
 42
1.0000
  0
SEQEND
  8
0
  0
POLYLINE
  8
16
 66
1
 10
0.0000
 20
0.0000
 30
0.0000
 40
0.0000
 41
0.0000
 70
1
  0
VERTEX
  8
16
 10
36.1950
 20
62.8650
 30
0.0000
  0
VERTEX
  8
16
 10
26.0350
 20
62.8650
 30
0.0000
 42
1.0000
  0
VERTEX
  8
16
 10
26.0350
 20
61.5950
 30
0.0000
  0
VERTEX
  8
16
 10
36.1950
 20
61.5950
 30
0.0000
 42
1.0000
  0
SEQEND
  8
0
  0
POLYLINE
  8
16
 66
1
 10
0.0000
 20
0.0000
 30
0.0000
 40
0.0000
 41
0.0000
 70
1
  0
VERTEX
  8
16
 10
26.6700
 20
54.6100
 30
0.0000
  0
VERTEX
  8
16
 10
26.6700
 20
57.1500
 30
0.0000
 42
1.0000
  0
VERTEX
  8
16
 10
25.4000
 20
57.1500
 30
0.0000
  0
VERTEX
  8
16
 10
25.4000
 20
54.6100
 30
0.0000
 42
1.0000
  0
SEQEND
  8
0
  0
POLYLINE
  8
16
 66
1
 10
0.0000
 20
0.0000
 30
0.0000
 40
0.0000
 41
0.0000
 70
1
  0
VERTEX
  8
16
 10
31.9360
 20
60.1390
 30
0.0000
  0
VERTEX
  8
16
 10
29.3960
 20
57.5990
 30
0.0000
 42
1.0000
  0
VERTEX
  8
16
 10
30.2940
 20
56.7010
 30
0.0000
  0
VERTEX
  8
16
 10
32.8340
 20
59.2410
 30
0.0000
 42
1.0000
  0
SEQEND
  8
0
  0
POLYLINE
  8
16
 66
1
 10
0.0000
 20
0.0000
 30
0.0000
 40
0.0000
 41
0.0000
 70
1
  0
VERTEX
  8
16
 10
29.8450
 20
57.7850
 30
0.0000
  0
VERTEX
  8
16
 10
26.0350
 20
57.7850
 30
0.0000
 42
1.0000
  0
VERTEX
  8
16
 10
26.0350
 20
56.5150
 30
0.0000
  0
VERTEX
  8
16
 10
29.8450
 20
56.5150
 30
0.0000
 42
1.0000
  0
SEQEND
  8
0
  0
POLYLINE
  8
16
 66
1
 10
0.0000
 20
0.0000
 30
0.0000
 40
0.0000
 41
0.0000
 70
1
  0
VERTEX
  8
16
 10
36.1950
 20
60.3250
 30
0.0000
  0
VERTEX
  8
16
 10
32.3850
 20
60.3250
 30
0.0000
 42
1.0000
  0
VERTEX
  8
16
 10
32.3850
 20
59.0550
 30
0.0000
  0
VERTEX
  8
16
 10
36.1950
 20
59.0550
 30
0.0000
 42
1.0000
  0
SEQEND
  8
0
  0
POLYLINE
  8
16
 66
1
 10
0.0000
 20
0.0000
 30
0.0000
 40
0.0000
 41
0.0000
 70
1
  0
VERTEX
  8
16
 10
26.6700
 20
49.5300
 30
0.0000
  0
VERTEX
  8
16
 10
26.6700
 20
52.0700
 30
0.0000
 42
1.0000
  0
VERTEX
  8
16
 10
25.4000
 20
52.0700
 30
0.0000
  0
VERTEX
  8
16
 10
25.4000
 20
49.5300
 30
0.0000
 42
1.0000
  0
SEQEND
  8
0
  0
POLYLINE
  8
16
 66
1
 10
0.0000
 20
0.0000
 30
0.0000
 40
0.0000
 41
0.0000
 70
1
  0
VERTEX
  8
16
 10
27.9400
 20
52.7050
 30
0.0000
  0
VERTEX
  8
16
 10
26.0350
 20
52.7050
 30
0.0000
 42
1.0000
  0
VERTEX
  8
16
 10
26.0350
 20
51.4350
 30
0.0000
  0
VERTEX
  8
16
 10
27.9400
 20
51.4350
 30
0.0000
 42
1.0000
  0
SEQEND
  8
0
  0
POLYLINE
  8
16
 66
1
 10
0.0000
 20
0.0000
 30
0.0000
 40
0.0000
 41
0.0000
 70
1
  0
VERTEX
  8
16
 10
36.1950
 20
57.7850
 30
0.0000
  0
VERTEX
  8
16
 10
33.0200
 20
57.7850
 30
0.0000
 42
1.0000
  0
VERTEX
  8
16
 10
33.0200
 20
56.5150
 30
0.0000
  0
VERTEX
  8
16
 10
36.1950
 20
56.5150
 30
0.0000
 42
1.0000
  0
SEQEND
  8
0
  0
POLYLINE
  8
16
 66
1
 10
0.0000
 20
0.0000
 30
0.0000
 40
0.0000
 41
0.0000
 70
1
  0
VERTEX
  8
16
 10
32.5710
 20
57.5990
 30
0.0000
  0
VERTEX
  8
16
 10
27.4910
 20
52.5190
 30
0.0000
 42
1.0000
  0
VERTEX
  8
16
 10
28.3890
 20
51.6210
 30
0.0000
  0
VERTEX
  8
16
 10
33.4690
 20
56.7010
 30
0.0000
 42
1.0000
  0
SEQEND
  8
0
  0
POLYLINE
  8
16
 66
1
 10
0.0000
 20
0.0000
 30
0.0000
 40
0.0000
 41
0.0000
 70
1
  0
VERTEX
  8
16
 10
26.6700
 20
44.4500
 30
0.0000
  0
VERTEX
  8
16
 10
26.6700
 20
46.9900
 30
0.0000
 42
1.0000
  0
VERTEX
  8
16
 10
25.4000
 20
46.9900
 30
0.0000
  0
VERTEX
  8
16
 10
25.4000
 20
44.4500
 30
0.0000
 42
1.0000
  0
SEQEND
  8
0
  0
POLYLINE
  8
16
 66
1
 10
0.0000
 20
0.0000
 30
0.0000
 40
0.0000
 41
0.0000
 70
1
  0
VERTEX
  8
16
 10
28.7610
 20
48.0740
 30
0.0000
  0
VERTEX
  8
16
 10
28.1260
 20
47.4390
 30
0.0000
 42
1.0000
  0
VERTEX
  8
16
 10
29.0240
 20
46.5410
 30
0.0000
  0
VERTEX
  8
16
 10
29.6590
 20
47.1760
 30
0.0000
 42
1.0000
  0
SEQEND
  8
0
  0
POLYLINE
  8
16
 66
1
 10
0.0000
 20
0.0000
 30
0.0000
 40
0.0000
 41
0.0000
 70
1
  0
VERTEX
  8
16
 10
28.5750
 20
47.6250
 30
0.0000
  0
VERTEX
  8
16
 10
26.0350
 20
47.6250
 30
0.0000
 42
1.0000
  0
VERTEX
  8
16
 10
26.0350
 20
46.3550
 30
0.0000
  0
VERTEX
  8
16
 10
28.5750
 20
46.3550
 30
0.0000
 42
1.0000
  0
SEQEND
  8
0
  0
POLYLINE
  8
16
 66
1
 10
0.0000
 20
0.0000
 30
0.0000
 40
0.0000
 41
0.0000
 70
1
  0
VERTEX
  8
16
 10
36.1950
 20
55.2450
 30
0.0000
  0
VERTEX
  8
16
 10
33.6550
 20
55.2450
 30
0.0000
 42
1.0000
  0
VERTEX
  8
16
 10
33.6550
 20
53.9750
 30
0.0000
  0
VERTEX
  8
16
 10
36.1950
 20
53.9750
 30
0.0000
 42
1.0000
  0
SEQEND
  8
0
  0
POLYLINE
  8
16
 66
1
 10
0.0000
 20
0.0000
 30
0.0000
 40
0.0000
 41
0.0000
 70
1
  0
VERTEX
  8
16
 10
33.2060
 20
55.0590
 30
0.0000
  0
VERTEX
  8
16
 10
28.7610
 20
50.6140
 30
0.0000
 42
1.0000
  0
VERTEX
  8
16
 10
29.6590
 20
49.7160
 30
0.0000
  0
VERTEX
  8
16
 10
34.1040
 20
54.1610
 30
0.0000
 42
1.0000
  0
SEQEND
  8
0
  0
POLYLINE
  8
16
 66
1
 10
0.0000
 20
0.0000
 30
0.0000
 40
0.0000
 41
0.0000
 70
1
  0
VERTEX
  8
16
 10
28.5750
 20
50.1650
 30
0.0000
  0
VERTEX
  8
16
 10
28.5750
 20
47.6250
 30
0.0000
 42
1.0000
  0
VERTEX
  8
16
 10
29.8450
 20
47.6250
 30
0.0000
  0
VERTEX
  8
16
 10
29.8450
 20
50.1650
 30
0.0000
 42
1.0000
  0
SEQEND
  8
0
  0
POLYLINE
  8
16
 66
1
 10
0.0000
 20
0.0000
 30
0.0000
 40
0.0000
 41
0.0000
 70
1
  0
VERTEX
  8
16
 10
26.6700
 20
39.3700
 30
0.0000
  0
VERTEX
  8
16
 10
26.6700
 20
41.9100
 30
0.0000
 42
1.0000
  0
VERTEX
  8
16
 10
25.4000
 20
41.9100
 30
0.0000
  0
VERTEX
  8
16
 10
25.4000
 20
39.3700
 30
0.0000
 42
1.0000
  0
SEQEND
  8
0
  0
POLYLINE
  8
16
 66
1
 10
0.0000
 20
0.0000
 30
0.0000
 40
0.0000
 41
0.0000
 70
1
  0
VERTEX
  8
16
 10
36.1950
 20
52.7050
 30
0.0000
  0
VERTEX
  8
16
 10
34.2900
 20
52.7050
 30
0.0000
 42
1.0000
  0
VERTEX
  8
16
 10
34.2900
 20
51.4350
 30
0.0000
  0
VERTEX
  8
16
 10
36.1950
 20
51.4350
 30
0.0000
 42
1.0000
  0
SEQEND
  8
0
  0
POLYLINE
  8
16
 66
1
 10
0.0000
 20
0.0000
 30
0.0000
 40
0.0000
 41
0.0000
 70
1
  0
VERTEX
  8
16
 10
33.8410
 20
52.5190
 30
0.0000
  0
VERTEX
  8
16
 10
30.6660
 20
49.3440
 30
0.0000
 42
1.0000
  0
VERTEX
  8
16
 10
31.5640
 20
48.4460
 30
0.0000
  0
VERTEX
  8
16
 10
34.7390
 20
51.6210
 30
0.0000
 42
1.0000
  0
SEQEND
  8
0
  0
POLYLINE
  8
16
 66
1
 10
0.0000
 20
0.0000
 30
0.0000
 40
0.0000
 41
0.0000
 70
1
  0
VERTEX
  8
16
 10
30.6660
 20
45.5340
 30
0.0000
  0
VERTEX
  8
16
 10
27.4910
 20
42.3590
 30
0.0000
 42
1.0000
  0
VERTEX
  8
16
 10
28.3890
 20
41.4610
 30
0.0000
  0
VERTEX
  8
16
 10
31.5640
 20
44.6360
 30
0.0000
 42
1.0000
  0
SEQEND
  8
0
  0
POLYLINE
  8
16
 66
1
 10
0.0000
 20
0.0000
 30
0.0000
 40
0.0000
 41
0.0000
 70
1
  0
VERTEX
  8
16
 10
27.9400
 20
42.5450
 30
0.0000
  0
VERTEX
  8
16
 10
26.0350
 20
42.5450
 30
0.0000
 42
1.0000
  0
VERTEX
  8
16
 10
26.0350
 20
41.2750
 30
0.0000
  0
VERTEX
  8
16
 10
27.9400
 20
41.2750
 30
0.0000
 42
1.0000
  0
SEQEND
  8
0
  0
POLYLINE
  8
16
 66
1
 10
0.0000
 20
0.0000
 30
0.0000
 40
0.0000
 41
0.0000
 70
1
  0
VERTEX
  8
16
 10
30.4800
 20
48.8950
 30
0.0000
  0
VERTEX
  8
16
 10
30.4800
 20
45.0850
 30
0.0000
 42
1.0000
  0
VERTEX
  8
16
 10
31.7500
 20
45.0850
 30
0.0000
  0
VERTEX
  8
16
 10
31.7500
 20
48.8950
 30
0.0000
 42
1.0000
  0
SEQEND
  8
0
  0
POLYLINE
  8
16
 66
1
 10
0.0000
 20
0.0000
 30
0.0000
 40
0.0000
 41
0.0000
 70
1
  0
VERTEX
  8
16
 10
19.0500
 20
22.8600
 30
0.0000
  0
VERTEX
  8
16
 10
39.3700
 20
22.8600
 30
0.0000
 42
1.0000
  0
VERTEX
  8
16
 10
39.3700
 20
24.1300
 30
0.0000
  0
VERTEX
  8
16
 10
19.0500
 20
24.1300
 30
0.0000
 42
1.0000
  0
SEQEND
  8
0
  0
POLYLINE
  8
16
 66
1
 10
0.0000
 20
0.0000
 30
0.0000
 40
0.0000
 41
0.0000
 70
1
  0
VERTEX
  8
16
 10
48.7090
 20
54.7960
 30
0.0000
  0
VERTEX
  8
16
 10
50.6140
 20
56.7010
 30
0.0000
 42
1.0000
  0
VERTEX
  8
16
 10
49.7160
 20
57.5990
 30
0.0000
  0
VERTEX
  8
16
 10
47.8110
 20
55.6940
 30
0.0000
 42
1.0000
  0
SEQEND
  8
0
  0
POLYLINE
  8
16
 66
1
 10
0.0000
 20
0.0000
 30
0.0000
 40
0.0000
 41
0.0000
 70
1
  0
VERTEX
  8
16
 10
50.1650
 20
56.5150
 30
0.0000
  0
VERTEX
  8
16
 10
51.4350
 20
56.5150
 30
0.0000
 42
1.0000
  0
VERTEX
  8
16
 10
51.4350
 20
57.7850
 30
0.0000
  0
VERTEX
  8
16
 10
50.1650
 20
57.7850
 30
0.0000
 42
1.0000
  0
SEQEND
  8
0
  0
POLYLINE
  8
16
 66
1
 10
0.0000
 20
0.0000
 30
0.0000
 40
0.0000
 41
0.0000
 70
1
  0
VERTEX
  8
16
 10
39.8190
 20
23.0460
 30
0.0000
  0
VERTEX
  8
16
 10
48.7090
 20
31.9360
 30
0.0000
 42
1.0000
  0
VERTEX
  8
16
 10
47.8110
 20
32.8340
 30
0.0000
  0
VERTEX
  8
16
 10
38.9210
 20
23.9440
 30
0.0000
 42
1.0000
  0
SEQEND
  8
0
  0
POLYLINE
  8
16
 66
1
 10
0.0000
 20
0.0000
 30
0.0000
 40
0.0000
 41
0.0000
 70
1
  0
VERTEX
  8
16
 10
48.8950
 20
32.3850
 30
0.0000
  0
VERTEX
  8
16
 10
48.8950
 20
55.2450
 30
0.0000
 42
1.0000
  0
VERTEX
  8
16
 10
47.6250
 20
55.2450
 30
0.0000
  0
VERTEX
  8
16
 10
47.6250
 20
32.3850
 30
0.0000
 42
1.0000
  0
SEQEND
  8
0
  0
POLYLINE
  8
16
 66
1
 10
0.0000
 20
0.0000
 30
0.0000
 40
0.0000
 41
0.0000
 70
1
  0
VERTEX
  8
16
 10
19.0500
 20
25.4000
 30
0.0000
  0
VERTEX
  8
16
 10
38.1000
 20
25.4000
 30
0.0000
 42
1.0000
  0
VERTEX
  8
16
 10
38.1000
 20
26.6700
 30
0.0000
  0
VERTEX
  8
16
 10
19.0500
 20
26.6700
 30
0.0000
 42
1.0000
  0
SEQEND
  8
0
  0
POLYLINE
  8
16
 66
1
 10
0.0000
 20
0.0000
 30
0.0000
 40
0.0000
 41
0.0000
 70
1
  0
VERTEX
  8
16
 10
38.5490
 20
25.5860
 30
0.0000
  0
VERTEX
  8
16
 10
46.1690
 20
33.2060
 30
0.0000
 42
1.0000
  0
VERTEX
  8
16
 10
45.2710
 20
34.1040
 30
0.0000
  0
VERTEX
  8
16
 10
37.6510
 20
26.4840
 30
0.0000
 42
1.0000
  0
SEQEND
  8
0
  0
POLYLINE
  8
16
 66
1
 10
0.0000
 20
0.0000
 30
0.0000
 40
0.0000
 41
0.0000
 70
1
  0
VERTEX
  8
16
 10
46.3550
 20
33.6550
 30
0.0000
  0
VERTEX
  8
16
 10
46.3550
 20
56.5150
 30
0.0000
 42
1.0000
  0
VERTEX
  8
16
 10
45.0850
 20
56.5150
 30
0.0000
  0
VERTEX
  8
16
 10
45.0850
 20
33.6550
 30
0.0000
 42
1.0000
  0
SEQEND
  8
0
  0
POLYLINE
  8
16
 66
1
 10
0.0000
 20
0.0000
 30
0.0000
 40
0.0000
 41
0.0000
 70
1
  0
VERTEX
  8
16
 10
46.1690
 20
56.0660
 30
0.0000
  0
VERTEX
  8
16
 10
49.3440
 20
59.2410
 30
0.0000
 42
1.0000
  0
VERTEX
  8
16
 10
48.4460
 20
60.1390
 30
0.0000
  0
VERTEX
  8
16
 10
45.2710
 20
56.9640
 30
0.0000
 42
1.0000
  0
SEQEND
  8
0
  0
POLYLINE
  8
16
 66
1
 10
0.0000
 20
0.0000
 30
0.0000
 40
0.0000
 41
0.0000
 70
1
  0
VERTEX
  8
16
 10
48.8950
 20
59.0550
 30
0.0000
  0
VERTEX
  8
16
 10
51.4350
 20
59.0550
 30
0.0000
 42
1.0000
  0
VERTEX
  8
16
 10
51.4350
 20
60.3250
 30
0.0000
  0
VERTEX
  8
16
 10
48.8950
 20
60.3250
 30
0.0000
 42
1.0000
  0
SEQEND
  8
0
  0
POLYLINE
  8
16
 66
1
 10
0.0000
 20
0.0000
 30
0.0000
 40
0.0000
 41
0.0000
 70
1
  0
VERTEX
  8
16
 10
51.4350
 20
51.4350
 30
0.0000
  0
VERTEX
  8
16
 10
53.9750
 20
51.4350
 30
0.0000
 42
1.0000
  0
VERTEX
  8
16
 10
53.9750
 20
52.7050
 30
0.0000
  0
VERTEX
  8
16
 10
51.4350
 20
52.7050
 30
0.0000
 42
1.0000
  0
SEQEND
  8
0
  0
POLYLINE
  8
16
 66
1
 10
0.0000
 20
0.0000
 30
0.0000
 40
0.0000
 41
0.0000
 70
1
  0
VERTEX
  8
16
 10
53.5260
 20
51.6210
 30
0.0000
  0
VERTEX
  8
16
 10
62.4160
 20
42.7310
 30
0.0000
 42
1.0000
  0
VERTEX
  8
16
 10
63.3140
 20
43.6290
 30
0.0000
  0
VERTEX
  8
16
 10
54.4240
 20
52.5190
 30
0.0000
 42
1.0000
  0
SEQEND
  8
0
  0
POLYLINE
  8
16
 66
1
 10
0.0000
 20
0.0000
 30
0.0000
 40
0.0000
 41
0.0000
 70
1
  0
VERTEX
  8
16
 10
62.2300
 20
43.1800
 30
0.0000
  0
VERTEX
  8
16
 10
62.2300
 20
31.7500
 30
0.0000
 42
1.0000
  0
VERTEX
  8
16
 10
63.5000
 20
31.7500
 30
0.0000
  0
VERTEX
  8
16
 10
63.5000
 20
43.1800
 30
0.0000
 42
1.0000
  0
SEQEND
  8
0
  0
POLYLINE
  8
16
 66
1
 10
0.0000
 20
0.0000
 30
0.0000
 40
0.0000
 41
0.0000
 70
1
  0
VERTEX
  8
16
 10
51.4350
 20
53.9750
 30
0.0000
  0
VERTEX
  8
16
 10
54.6100
 20
53.9750
 30
0.0000
 42
1.0000
  0
VERTEX
  8
16
 10
54.6100
 20
55.2450
 30
0.0000
  0
VERTEX
  8
16
 10
51.4350
 20
55.2450
 30
0.0000
 42
1.0000
  0
SEQEND
  8
0
  0
POLYLINE
  8
16
 66
1
 10
0.0000
 20
0.0000
 30
0.0000
 40
0.0000
 41
0.0000
 70
1
  0
VERTEX
  8
16
 10
65.4050
 20
43.1800
 30
0.0000
  0
VERTEX
  8
16
 10
65.4050
 20
30.4800
 30
0.0000
 42
1.0000
  0
VERTEX
  8
16
 10
66.6750
 20
30.4800
 30
0.0000
  0
VERTEX
  8
16
 10
66.6750
 20
43.1800
 30
0.0000
 42
1.0000
  0
SEQEND
  8
0
  0
POLYLINE
  8
16
 66
1
 10
0.0000
 20
0.0000
 30
0.0000
 40
0.0000
 41
0.0000
 70
1
  0
VERTEX
  8
16
 10
54.1610
 20
54.1610
 30
0.0000
  0
VERTEX
  8
16
 10
65.5910
 20
42.7310
 30
0.0000
 42
1.0000
  0
VERTEX
  8
16
 10
66.4890
 20
43.6290
 30
0.0000
  0
VERTEX
  8
16
 10
55.0590
 20
55.0590
 30
0.0000
 42
1.0000
  0
SEQEND
  8
0
  0
POLYLINE
  8
16
 66
1
 10
0.0000
 20
0.0000
 30
0.0000
 40
0.0000
 41
0.0000
 70
1
  0
VERTEX
  8
16
 10
65.5910
 20
30.9290
 30
0.0000
  0
VERTEX
  8
16
 10
64.3210
 20
29.6590
 30
0.0000
 42
1.0000
  0
VERTEX
  8
16
 10
65.2190
 20
28.7610
 30
0.0000
  0
VERTEX
  8
16
 10
66.4890
 20
30.0310
 30
0.0000
 42
1.0000
  0
SEQEND
  8
0
  0
POLYLINE
  8
16
 66
1
 10
0.0000
 20
0.0000
 30
0.0000
 40
0.0000
 41
0.0000
 70
1
  0
VERTEX
  8
16
 10
64.7700
 20
29.8450
 30
0.0000
  0
VERTEX
  8
16
 10
62.8650
 20
29.8450
 30
0.0000
 42
1.0000
  0
VERTEX
  8
16
 10
62.8650
 20
28.5750
 30
0.0000
  0
VERTEX
  8
16
 10
64.7700
 20
28.5750
 30
0.0000
 42
1.0000
  0
SEQEND
  8
0
  0
ENDSEC
  0
EOF
