  0
SECTION
  2
HEADER
  9
$ACADVER
  1
AC1009
  9
$FILLMODE
 70
0
  9
$EXTMIN
 10
-0.0005
 20
-0.0005
 30
0.0000
  9
$EXTMAX
 10
97.0005
 20
30.1500
 30
0.0000
  0
ENDSEC
  0
SECTION
  2
TABLES
  0
TABLE
  2
LTYPE
 70
1
  0
LTYPE
  2
CONTINUOUS
 70
64
  3
Solid line
 72
65
 73
0
 40
0
  0
ENDTAB
  0
TABLE
  2
LAYER
 70
255
  0
LAYER
  2
16
 70
64
 62
132
  6
CONTINUOUS
  0
LAYER
  2
17
 70
64
 62
110
  6
CONTINUOUS
  0
LAYER
  2
20
 70
64
 62
31
  6
CONTINUOUS
  0
LAYER
  2
44
 70
64
 62
253
  6
CONTINUOUS
  0
LAYER
  2
49
 70
64
 62
253
  6
CONTINUOUS
  0
ENDTAB
  0
ENDSEC
  0
SECTION
  2
BLOCKS
  0
BLOCK
  8
0
  2
RECT
 70
64
 10
0.0000
 20
0.0000
 30
0.0000
  3
RECT
  0
SOLID
  8
0
 10
-0.5000
 20
-0.5000
 30
0.0000
 11
0.5000
 21
-0.5000
 31
0.0000
 12
-0.5000
 22
0.5000
 32
0.0000
 13
0.5000
 23
0.5000
 33
0.0000
  0
ENDBLK
  8
0
  0
BLOCK
  8
0
  2
PIE
 70
64
 10
0.0000
 20
0.0000
 30
0.0000
  3
PIE
  0
CIRCLE
  8
0
 10
0.0000
 20
0.0000
 30
0.0000
 40
0.5000
  0
ENDBLK
  8
0
  0
BLOCK
  8
0
  2
OCTAGONP
 70
64
 10
0.0000
 20
0.0000
 30
0.0000
  3
OCTAGONP
  0
POLYLINE
  8
0
 66
1
 10
0.0000
 20
0.0000
 30
0.0000
 40
0.0000
 41
0.0000
 70
1
  0
VERTEX
  8
0
 10
-0.5000
 20
-0.2071
 30
0.0000
  0
VERTEX
  8
0
 10
-0.5000
 20
0.2071
 30
0.0000
  0
VERTEX
  8
0
 10
-0.2071
 20
0.5000
 30
0.0000
  0
VERTEX
  8
0
 10
0.2071
 20
0.5000
 30
0.0000
  0
VERTEX
  8
0
 10
0.5000
 20
0.2071
 30
0.0000
  0
VERTEX
  8
0
 10
0.5000
 20
-0.2071
 30
0.0000
  0
VERTEX
  8
0
 10
0.2071
 20
-0.5000
 30
0.0000
  0
VERTEX
  8
0
 10
-0.2071
 20
-0.5000
 30
0.0000
  0
SEQEND
  8
0
  0
ENDBLK
  8
0
  0
BLOCK
  8
0
  2
SQUAREP
 70
64
 10
0.0000
 20
0.0000
 30
0.0000
  3
SQUAREP
  0
SOLID
  8
0
 10
-0.5000
 20
-0.5000
 30
0.0000
 11
0.5000
 21
-0.5000
 31
0.0000
 12
-0.5000
 22
0.5000
 32
0.0000
 13
0.5000
 23
0.5000
 33
0.0000
  0
ENDBLK
  8
0
  0
BLOCK
  8
0
  2
ROUNDP
 70
64
 10
0.0000
 20
0.0000
 30
0.0000
  3
ROUNDP
  0
CIRCLE
  8
0
 10
0.0000
 20
0.0000
 30
0.0000
 40
0.5000
  0
ENDBLK
  8
0
  0
BLOCK
  8
0
  2
ANNULUSP
 70
64
 10
0.0000
 20
0.0000
 30
0.0000
  3
ANNULUSP
  0
CIRCLE
  8
0
 10
0.0000
 20
0.0000
 30
0.0000
 40
0.5000
  0
ENDBLK
  8
0
  0
BLOCK
  8
0
  2
THERMALP
 70
64
 10
0.0000
 20
0.0000
 30
0.0000
  3
THERMALP
  0
POLYLINE
  8
0
 66
1
 10
0.0000
 20
0.0000
 30
0.0000
 40
0.0000
 41
0.0000
 70
1
  0
VERTEX
  8
0
 10
-0.2379
 20
0.4000
 30
0.0000
  0
VERTEX
  8
0
 10
0.2379
 20
0.4000
 30
0.0000
 42
1.0000
  0
VERTEX
  8
0
 10
0.2379
 20
0.5000
 30
0.0000
  0
VERTEX
  8
0
 10
-0.2379
 20
0.5000
 30
0.0000
 42
1.0000
  0
SEQEND
  8
0
  0
POLYLINE
  8
0
 66
1
 10
0.0000
 20
0.0000
 30
0.0000
 40
0.0000
 41
0.0000
 70
1
  0
VERTEX
  8
0
 10
0.4000
 20
0.2379
 30
0.0000
  0
VERTEX
  8
0
 10
0.4000
 20
-0.2379
 30
0.0000
 42
1.0000
  0
VERTEX
  8
0
 10
0.5000
 20
-0.2379
 30
0.0000
  0
VERTEX
  8
0
 10
0.5000
 20
0.2379
 30
0.0000
 42
1.0000
  0
SEQEND
  8
0
  0
POLYLINE
  8
0
 66
1
 10
0.0000
 20
0.0000
 30
0.0000
 40
0.0000
 41
0.0000
 70
1
  0
VERTEX
  8
0
 10
0.2379
 20
-0.4000
 30
0.0000
  0
VERTEX
  8
0
 10
-0.2379
 20
-0.4000
 30
0.0000
 42
1.0000
  0
VERTEX
  8
0
 10
-0.2379
 20
-0.5000
 30
0.0000
  0
VERTEX
  8
0
 10
0.2379
 20
-0.5000
 30
0.0000
 42
1.0000
  0
SEQEND
  8
0
  0
POLYLINE
  8
0
 66
1
 10
0.0000
 20
0.0000
 30
0.0000
 40
0.0000
 41
0.0000
 70
1
  0
VERTEX
  8
0
 10
-0.4000
 20
-0.2379
 30
0.0000
  0
VERTEX
  8
0
 10
-0.4000
 20
0.2379
 30
0.0000
 42
1.0000
  0
VERTEX
  8
0
 10
-0.5000
 20
0.2379
 30
0.0000
  0
VERTEX
  8
0
 10
-0.5000
 20
-0.2379
 30
0.0000
 42
1.0000
  0
SEQEND
  8
0
  0
ENDBLK
  8
0
  0
BLOCK
  8
0
  2
OCTAGONV
 70
64
 10
0.0000
 20
0.0000
 30
0.0000
  3
OCTAGONV
  0
POLYLINE
  8
0
 66
1
 10
0.0000
 20
0.0000
 30
0.0000
 40
0.0000
 41
0.0000
 70
1
  0
VERTEX
  8
0
 10
-0.5000
 20
-0.2071
 30
0.0000
  0
VERTEX
  8
0
 10
-0.5000
 20
0.2071
 30
0.0000
  0
VERTEX
  8
0
 10
-0.2071
 20
0.5000
 30
0.0000
  0
VERTEX
  8
0
 10
0.2071
 20
0.5000
 30
0.0000
  0
VERTEX
  8
0
 10
0.5000
 20
0.2071
 30
0.0000
  0
VERTEX
  8
0
 10
0.5000
 20
-0.2071
 30
0.0000
  0
VERTEX
  8
0
 10
0.2071
 20
-0.5000
 30
0.0000
  0
VERTEX
  8
0
 10
-0.2071
 20
-0.5000
 30
0.0000
  0
SEQEND
  8
0
  0
ENDBLK
  8
0
  0
BLOCK
  8
0
  2
SQUAREV
 70
64
 10
0.0000
 20
0.0000
 30
0.0000
  3
SQUAREV
  0
SOLID
  8
0
 10
-0.5000
 20
-0.5000
 30
0.0000
 11
0.5000
 21
-0.5000
 31
0.0000
 12
-0.5000
 22
0.5000
 32
0.0000
 13
0.5000
 23
0.5000
 33
0.0000
  0
ENDBLK
  8
0
  0
BLOCK
  8
0
  2
ROUNDV
 70
64
 10
0.0000
 20
0.0000
 30
0.0000
  3
ROUNDV
  0
CIRCLE
  8
0
 10
0.0000
 20
0.0000
 30
0.0000
 40
0.5000
  0
ENDBLK
  8
0
  0
BLOCK
  8
0
  2
ANNULUSV
 70
64
 10
0.0000
 20
0.0000
 30
0.0000
  3
ANNULUSV
  0
CIRCLE
  8
0
 10
0.0000
 20
0.0000
 30
0.0000
 40
0.5000
  0
ENDBLK
  8
0
  0
BLOCK
  8
0
  2
THERMALV
 70
64
 10
0.0000
 20
0.0000
 30
0.0000
  3
THERMALV
  0
POLYLINE
  8
0
 66
1
 10
0.0000
 20
0.0000
 30
0.0000
 40
0.0000
 41
0.0000
 70
1
  0
VERTEX
  8
0
 10
-0.2379
 20
0.4000
 30
0.0000
  0
VERTEX
  8
0
 10
0.2379
 20
0.4000
 30
0.0000
 42
1.0000
  0
VERTEX
  8
0
 10
0.2379
 20
0.5000
 30
0.0000
  0
VERTEX
  8
0
 10
-0.2379
 20
0.5000
 30
0.0000
 42
1.0000
  0
SEQEND
  8
0
  0
POLYLINE
  8
0
 66
1
 10
0.0000
 20
0.0000
 30
0.0000
 40
0.0000
 41
0.0000
 70
1
  0
VERTEX
  8
0
 10
0.4000
 20
0.2379
 30
0.0000
  0
VERTEX
  8
0
 10
0.4000
 20
-0.2379
 30
0.0000
 42
1.0000
  0
VERTEX
  8
0
 10
0.5000
 20
-0.2379
 30
0.0000
  0
VERTEX
  8
0
 10
0.5000
 20
0.2379
 30
0.0000
 42
1.0000
  0
SEQEND
  8
0
  0
POLYLINE
  8
0
 66
1
 10
0.0000
 20
0.0000
 30
0.0000
 40
0.0000
 41
0.0000
 70
1
  0
VERTEX
  8
0
 10
0.2379
 20
-0.4000
 30
0.0000
  0
VERTEX
  8
0
 10
-0.2379
 20
-0.4000
 30
0.0000
 42
1.0000
  0
VERTEX
  8
0
 10
-0.2379
 20
-0.5000
 30
0.0000
  0
VERTEX
  8
0
 10
0.2379
 20
-0.5000
 30
0.0000
 42
1.0000
  0
SEQEND
  8
0
  0
POLYLINE
  8
0
 66
1
 10
0.0000
 20
0.0000
 30
0.0000
 40
0.0000
 41
0.0000
 70
1
  0
VERTEX
  8
0
 10
-0.4000
 20
-0.2379
 30
0.0000
  0
VERTEX
  8
0
 10
-0.4000
 20
0.2379
 30
0.0000
 42
1.0000
  0
VERTEX
  8
0
 10
-0.5000
 20
0.2379
 30
0.0000
  0
VERTEX
  8
0
 10
-0.5000
 20
-0.2379
 30
0.0000
 42
1.0000
  0
SEQEND
  8
0
  0
ENDBLK
  8
0
  0
BLOCK
  8
0
  2
OFFSETP100
 70
64
 10
0.0000
 20
0.0000
 30
0.0000
  3
OFFSETP100
  0
POLYLINE
  8
0
 66
1
 10
0.0000
 20
0.0000
 30
0.0000
 40
0.0000
 41
0.0000
 70
1
  0
VERTEX
  8
0
 10
0.0000
 20
-0.5000
 30
0.0000
  0
VERTEX
  8
0
 10
1.0000
 20
-0.5000
 30
0.0000
 42
1.0000
  0
VERTEX
  8
0
 10
1.0000
 20
0.5000
 30
0.0000
  0
VERTEX
  8
0
 10
0.0000
 20
0.5000
 30
0.0000
 42
1.0000
  0
SEQEND
  8
0
  0
ENDBLK
  8
0
  0
ENDSEC
  0
SECTION
  2
ENTITIES
  0
LINE
  8
20
 10
0.0000
 20
0.0000
 30
0.0000
 11
96.5000
 21
0.0000
 31
0.0000
  0
LINE
  8
20
 10
96.5000
 20
0.0000
 30
0.0000
 11
96.5000
 21
30.1500
 31
0.0000
  0
LINE
  8
20
 10
96.5000
 20
30.1500
 30
0.0000
 11
0.0000
 21
30.1500
 31
0.0000
  0
LINE
  8
20
 10
0.0000
 20
30.1500
 30
0.0000
 11
0.0000
 21
0.0000
 31
0.0000
  0
POLYLINE
  8
49
 66
1
 10
0.0000
 20
0.0000
 30
0.0000
 40
0.0000
 41
0.0000
 70
1
  0
VERTEX
  8
49
 10
0.0000
 20
-0.0005
 30
0.0000
  0
VERTEX
  8
49
 10
97.0000
 20
-0.0005
 30
0.0000
 42
1.0000
  0
VERTEX
  8
49
 10
97.0000
 20
0.0005
 30
0.0000
  0
VERTEX
  8
49
 10
0.0000
 20
0.0005
 30
0.0000
 42
1.0000
  0
SEQEND
  8
0
  0
POLYLINE
  8
49
 66
1
 10
0.0000
 20
0.0000
 30
0.0000
 40
0.0000
 41
0.0000
 70
1
  0
VERTEX
  8
49
 10
0.0005
 20
0.0000
 30
0.0000
  0
VERTEX
  8
49
 10
0.0005
 20
30.0000
 30
0.0000
 42
1.0000
  0
VERTEX
  8
49
 10
-0.0005
 20
30.0000
 30
0.0000
  0
VERTEX
  8
49
 10
-0.0005
 20
0.0000
 30
0.0000
 42
1.0000
  0
SEQEND
  8
0
  0
POLYLINE
  8
49
 66
1
 10
0.0000
 20
0.0000
 30
0.0000
 40
0.0000
 41
0.0000
 70
1
  0
VERTEX
  8
49
 10
0.0000
 20
29.9995
 30
0.0000
  0
VERTEX
  8
49
 10
97.0000
 20
29.9995
 30
0.0000
 42
1.0000
  0
VERTEX
  8
49
 10
97.0000
 20
30.0005
 30
0.0000
  0
VERTEX
  8
49
 10
0.0000
 20
30.0005
 30
0.0000
 42
1.0000
  0
SEQEND
  8
0
  0
POLYLINE
  8
49
 66
1
 10
0.0000
 20
0.0000
 30
0.0000
 40
0.0000
 41
0.0000
 70
1
  0
VERTEX
  8
49
 10
97.0005
 20
0.0000
 30
0.0000
  0
VERTEX
  8
49
 10
97.0005
 20
30.0000
 30
0.0000
 42
1.0000
  0
VERTEX
  8
49
 10
96.9995
 20
30.0000
 30
0.0000
  0
VERTEX
  8
49
 10
96.9995
 20
0.0000
 30
0.0000
 42
1.0000
  0
SEQEND
  8
0
  0
CIRCLE
  8
49
 10
3.0000
 20
3.0000
 30
0.0000
 40
0.7495
  0
CIRCLE
  8
49
 10
3.0000
 20
3.0000
 30
0.0000
 40
0.7505
  0
CIRCLE
  8
49
 10
6.0000
 20
3.0000
 30
0.0000
 40
0.7495
  0
CIRCLE
  8
49
 10
6.0000
 20
3.0000
 30
0.0000
 40
0.7505
  0
CIRCLE
  8
49
 10
46.0000
 20
3.0000
 30
0.0000
 40
0.7495
  0
CIRCLE
  8
49
 10
46.0000
 20
3.0000
 30
0.0000
 40
0.7505
  0
CIRCLE
  8
49
 10
3.0000
 20
11.0000
 30
0.0000
 40
0.7495
  0
CIRCLE
  8
49
 10
3.0000
 20
11.0000
 30
0.0000
 40
0.7505
  0
CIRCLE
  8
49
 10
6.0000
 20
11.0000
 30
0.0000
 40
0.7495
  0
CIRCLE
  8
49
 10
6.0000
 20
11.0000
 30
0.0000
 40
0.7505
  0
CIRCLE
  8
49
 10
46.0000
 20
11.0000
 30
0.0000
 40
0.7495
  0
CIRCLE
  8
49
 10
46.0000
 20
11.0000
 30
0.0000
 40
0.7505
  0
CIRCLE
  8
49
 10
3.0000
 20
19.0000
 30
0.0000
 40
0.7495
  0
CIRCLE
  8
49
 10
3.0000
 20
19.0000
 30
0.0000
 40
0.7505
  0
CIRCLE
  8
49
 10
6.0000
 20
19.0000
 30
0.0000
 40
0.7495
  0
CIRCLE
  8
49
 10
6.0000
 20
19.0000
 30
0.0000
 40
0.7505
  0
CIRCLE
  8
49
 10
46.0000
 20
19.0000
 30
0.0000
 40
0.7495
  0
CIRCLE
  8
49
 10
46.0000
 20
19.0000
 30
0.0000
 40
0.7505
  0
CIRCLE
  8
49
 10
3.0000
 20
27.0000
 30
0.0000
 40
0.7495
  0
CIRCLE
  8
49
 10
3.0000
 20
27.0000
 30
0.0000
 40
0.7505
  0
CIRCLE
  8
49
 10
6.0000
 20
27.0000
 30
0.0000
 40
0.7495
  0
CIRCLE
  8
49
 10
6.0000
 20
27.0000
 30
0.0000
 40
0.7505
  0
CIRCLE
  8
49
 10
46.0000
 20
27.0000
 30
0.0000
 40
0.7495
  0
CIRCLE
  8
49
 10
46.0000
 20
27.0000
 30
0.0000
 40
0.7505
  0
CIRCLE
  8
49
 10
49.0000
 20
7.0000
 30
0.0000
 40
0.7495
  0
CIRCLE
  8
49
 10
49.0000
 20
7.0000
 30
0.0000
 40
0.7505
  0
CIRCLE
  8
49
 10
52.0000
 20
7.0000
 30
0.0000
 40
0.7495
  0
CIRCLE
  8
49
 10
52.0000
 20
7.0000
 30
0.0000
 40
0.7505
  0
CIRCLE
  8
49
 10
92.0000
 20
7.0000
 30
0.0000
 40
0.7495
  0
CIRCLE
  8
49
 10
92.0000
 20
7.0000
 30
0.0000
 40
0.7505
  0
CIRCLE
  8
49
 10
92.0000
 20
15.0000
 30
0.0000
 40
0.7495
  0
CIRCLE
  8
49
 10
92.0000
 20
15.0000
 30
0.0000
 40
0.7505
  0
CIRCLE
  8
49
 10
52.0000
 20
15.0000
 30
0.0000
 40
0.7495
  0
CIRCLE
  8
49
 10
52.0000
 20
15.0000
 30
0.0000
 40
0.7505
  0
CIRCLE
  8
49
 10
49.0000
 20
15.0000
 30
0.0000
 40
0.7495
  0
CIRCLE
  8
49
 10
49.0000
 20
15.0000
 30
0.0000
 40
0.7505
  0
CIRCLE
  8
49
 10
92.0000
 20
23.0000
 30
0.0000
 40
0.7495
  0
CIRCLE
  8
49
 10
92.0000
 20
23.0000
 30
0.0000
 40
0.7505
  0
CIRCLE
  8
49
 10
52.0000
 20
23.0000
 30
0.0000
 40
0.7495
  0
CIRCLE
  8
49
 10
52.0000
 20
23.0000
 30
0.0000
 40
0.7505
  0
CIRCLE
  8
49
 10
49.0000
 20
23.0000
 30
0.0000
 40
0.7495
  0
CIRCLE
  8
49
 10
49.0000
 20
23.0000
 30
0.0000
 40
0.7505
  0
CIRCLE
  8
49
 10
4.0000
 20
23.0000
 30
0.0000
 40
1.9995
  0
CIRCLE
  8
49
 10
4.0000
 20
23.0000
 30
0.0000
 40
2.0005
  0
CIRCLE
  8
49
 10
4.0000
 20
7.0000
 30
0.0000
 40
1.9995
  0
CIRCLE
  8
49
 10
4.0000
 20
7.0000
 30
0.0000
 40
2.0005
  0
CIRCLE
  8
49
 10
45.0000
 20
15.0000
 30
0.0000
 40
1.9995
  0
CIRCLE
  8
49
 10
45.0000
 20
15.0000
 30
0.0000
 40
2.0005
  0
CIRCLE
  8
49
 10
87.0000
 20
19.0000
 30
0.0000
 40
1.9995
  0
CIRCLE
  8
49
 10
87.0000
 20
19.0000
 30
0.0000
 40
2.0005
  0
CIRCLE
  8
49
 10
87.0000
 20
11.0000
 30
0.0000
 40
1.9995
  0
CIRCLE
  8
49
 10
87.0000
 20
11.0000
 30
0.0000
 40
2.0005
  0
INSERT
  8
17
  2
ROUNDP
 10
5.7150
 20
26.6700
 30
0.0000
 41
1.8796
 42
1.8796
 43
1.0000
 50
270.0000
  0
CIRCLE
  8
44
 10
5.7150
 20
26.6700
 30
0.0000
 40
0.5080
  0
INSERT
  8
17
  2
ROUNDP
 10
3.1750
 20
26.6700
 30
0.0000
 41
1.8796
 42
1.8796
 43
1.0000
 50
270.0000
  0
CIRCLE
  8
44
 10
3.1750
 20
26.6700
 30
0.0000
 40
0.5080
  0
INSERT
  8
17
  2
ROUNDP
 10
5.7150
 20
19.0500
 30
0.0000
 41
1.8796
 42
1.8796
 43
1.0000
 50
270.0000
  0
CIRCLE
  8
44
 10
5.7150
 20
19.0500
 30
0.0000
 40
0.5080
  0
INSERT
  8
17
  2
ROUNDP
 10
3.1750
 20
19.0500
 30
0.0000
 41
1.8796
 42
1.8796
 43
1.0000
 50
270.0000
  0
CIRCLE
  8
44
 10
3.1750
 20
19.0500
 30
0.0000
 40
0.5080
  0
INSERT
  8
17
  2
ROUNDP
 10
5.7150
 20
11.4300
 30
0.0000
 41
1.8796
 42
1.8796
 43
1.0000
 50
270.0000
  0
CIRCLE
  8
44
 10
5.7150
 20
11.4300
 30
0.0000
 40
0.5080
  0
INSERT
  8
17
  2
ROUNDP
 10
3.1750
 20
11.4300
 30
0.0000
 41
1.8796
 42
1.8796
 43
1.0000
 50
270.0000
  0
CIRCLE
  8
44
 10
3.1750
 20
11.4300
 30
0.0000
 40
0.5080
  0
INSERT
  8
17
  2
ROUNDP
 10
5.7150
 20
2.5400
 30
0.0000
 41
1.8796
 42
1.8796
 43
1.0000
 50
270.0000
  0
CIRCLE
  8
44
 10
5.7150
 20
2.5400
 30
0.0000
 40
0.5080
  0
INSERT
  8
17
  2
ROUNDP
 10
3.1750
 20
2.5400
 30
0.0000
 41
1.8796
 42
1.8796
 43
1.0000
 50
270.0000
  0
CIRCLE
  8
44
 10
3.1750
 20
2.5400
 30
0.0000
 40
0.5080
  0
INSERT
  8
17
  2
ROUNDP
 10
51.4350
 20
22.8600
 30
0.0000
 41
1.8796
 42
1.8796
 43
1.0000
 50
270.0000
  0
CIRCLE
  8
44
 10
51.4350
 20
22.8600
 30
0.0000
 40
0.5080
  0
INSERT
  8
17
  2
ROUNDP
 10
48.8950
 20
22.8600
 30
0.0000
 41
1.8796
 42
1.8796
 43
1.0000
 50
270.0000
  0
CIRCLE
  8
44
 10
48.8950
 20
22.8600
 30
0.0000
 40
0.5080
  0
INSERT
  8
17
  2
OFFSETP100
 10
45.7200
 20
26.6700
 30
0.0000
 41
1.8796
 42
1.8796
 43
1.0000
 50
180.0000
  0
CIRCLE
  8
44
 10
45.7200
 20
26.6700
 30
0.0000
 40
0.5588
  0
INSERT
  8
17
  2
OFFSETP100
 10
45.7200
 20
19.0500
 30
0.0000
 41
1.8796
 42
1.8796
 43
1.0000
 50
180.0000
  0
CIRCLE
  8
44
 10
45.7200
 20
19.0500
 30
0.0000
 40
0.5588
  0
INSERT
  8
17
  2
OFFSETP100
 10
45.7200
 20
11.4300
 30
0.0000
 41
1.8796
 42
1.8796
 43
1.0000
 50
180.0000
  0
CIRCLE
  8
44
 10
45.7200
 20
11.4300
 30
0.0000
 40
0.5588
  0
INSERT
  8
17
  2
OFFSETP100
 10
91.4400
 20
14.6050
 30
0.0000
 41
1.8796
 42
1.8796
 43
1.0000
 50
180.0000
  0
CIRCLE
  8
44
 10
91.4400
 20
14.6050
 30
0.0000
 40
0.5588
  0
INSERT
  8
17
  2
ROUNDP
 10
23.4950
 20
6.3500
 30
0.0000
 41
1.8796
 42
1.8796
 43
1.0000
 50
90.0000
  0
CIRCLE
  8
44
 10
23.4950
 20
6.3500
 30
0.0000
 40
0.5080
  0
INSERT
  8
17
  2
ROUNDP
 10
26.0350
 20
6.3500
 30
0.0000
 41
1.8796
 42
1.8796
 43
1.0000
 50
90.0000
  0
CIRCLE
  8
44
 10
26.0350
 20
6.3500
 30
0.0000
 40
0.5080
  0
INSERT
  8
17
  2
ROUNDP
 10
28.5750
 20
6.3500
 30
0.0000
 41
1.8796
 42
1.8796
 43
1.0000
 50
90.0000
  0
CIRCLE
  8
44
 10
28.5750
 20
6.3500
 30
0.0000
 40
0.5080
  0
INSERT
  8
17
  2
ROUNDP
 10
31.1150
 20
6.3500
 30
0.0000
 41
1.8796
 42
1.8796
 43
1.0000
 50
90.0000
  0
CIRCLE
  8
44
 10
31.1150
 20
6.3500
 30
0.0000
 40
0.5080
  0
INSERT
  8
17
  2
OFFSETP100
 10
45.7200
 20
2.5400
 30
0.0000
 41
1.8796
 42
1.8796
 43
1.0000
 50
180.0000
  0
CIRCLE
  8
44
 10
45.7200
 20
2.5400
 30
0.0000
 40
0.5588
  0
INSERT
  8
17
  2
OFFSETP100
 10
91.4400
 20
22.8600
 30
0.0000
 41
1.8796
 42
1.8796
 43
1.0000
 50
180.0000
  0
CIRCLE
  8
44
 10
91.4400
 20
22.8600
 30
0.0000
 40
0.5588
  0
INSERT
  8
17
  2
OFFSETP100
 10
91.4400
 20
6.3500
 30
0.0000
 41
1.8796
 42
1.8796
 43
1.0000
 50
180.0000
  0
CIRCLE
  8
44
 10
91.4400
 20
6.3500
 30
0.0000
 40
0.5588
  0
INSERT
  8
17
  2
ROUNDP
 10
51.4350
 20
14.6050
 30
0.0000
 41
1.8796
 42
1.8796
 43
1.0000
 50
270.0000
  0
CIRCLE
  8
44
 10
51.4350
 20
14.6050
 30
0.0000
 40
0.5080
  0
INSERT
  8
17
  2
ROUNDP
 10
48.8950
 20
14.6050
 30
0.0000
 41
1.8796
 42
1.8796
 43
1.0000
 50
270.0000
  0
CIRCLE
  8
44
 10
48.8950
 20
14.6050
 30
0.0000
 40
0.5080
  0
INSERT
  8
17
  2
ROUNDP
 10
51.4350
 20
6.3500
 30
0.0000
 41
1.8796
 42
1.8796
 43
1.0000
 50
270.0000
  0
CIRCLE
  8
44
 10
51.4350
 20
6.3500
 30
0.0000
 40
0.5080
  0
INSERT
  8
17
  2
ROUNDP
 10
48.8950
 20
6.3500
 30
0.0000
 41
1.8796
 42
1.8796
 43
1.0000
 50
270.0000
  0
CIRCLE
  8
44
 10
48.8950
 20
6.3500
 30
0.0000
 40
0.5080
  0
INSERT
  8
17
  2
ROUNDP
 10
69.2150
 20
1.9050
 30
0.0000
 41
1.8796
 42
1.8796
 43
1.0000
 50
90.0000
  0
CIRCLE
  8
44
 10
69.2150
 20
1.9050
 30
0.0000
 40
0.5080
  0
INSERT
  8
17
  2
ROUNDP
 10
71.7550
 20
1.9050
 30
0.0000
 41
1.8796
 42
1.8796
 43
1.0000
 50
90.0000
  0
CIRCLE
  8
44
 10
71.7550
 20
1.9050
 30
0.0000
 40
0.5080
  0
INSERT
  8
17
  2
ROUNDP
 10
74.2950
 20
1.9050
 30
0.0000
 41
1.8796
 42
1.8796
 43
1.0000
 50
90.0000
  0
CIRCLE
  8
44
 10
74.2950
 20
1.9050
 30
0.0000
 40
0.5080
  0
INSERT
  8
17
  2
ROUNDP
 10
82.5500
 20
1.9050
 30
0.0000
 41
1.8796
 42
1.8796
 43
1.0000
 50
90.0000
  0
CIRCLE
  8
44
 10
82.5500
 20
1.9050
 30
0.0000
 40
0.5080
  0
INSERT
  8
17
  2
ROUNDP
 10
85.0900
 20
1.9050
 30
0.0000
 41
1.8796
 42
1.8796
 43
1.0000
 50
90.0000
  0
CIRCLE
  8
44
 10
85.0900
 20
1.9050
 30
0.0000
 40
0.5080
  0
POLYLINE
  8
16
 66
1
 10
0.0000
 20
0.0000
 30
0.0000
 40
0.0000
 41
0.0000
 70
1
  0
VERTEX
  8
16
 10
48.2600
 20
6.3500
 30
0.0000
  0
VERTEX
  8
16
 10
48.2600
 20
3.8100
 30
0.0000
 42
1.0000
  0
VERTEX
  8
16
 10
49.5300
 20
3.8100
 30
0.0000
  0
VERTEX
  8
16
 10
49.5300
 20
6.3500
 30
0.0000
 42
1.0000
  0
SEQEND
  8
0
  0
POLYLINE
  8
16
 66
1
 10
0.0000
 20
0.0000
 30
0.0000
 40
0.0000
 41
0.0000
 70
1
  0
VERTEX
  8
16
 10
50.8000
 20
1.2700
 30
0.0000
  0
VERTEX
  8
16
 10
69.2150
 20
1.2700
 30
0.0000
 42
1.0000
  0
VERTEX
  8
16
 10
69.2150
 20
2.5400
 30
0.0000
  0
VERTEX
  8
16
 10
50.8000
 20
2.5400
 30
0.0000
 42
1.0000
  0
SEQEND
  8
0
  0
POLYLINE
  8
16
 66
1
 10
0.0000
 20
0.0000
 30
0.0000
 40
0.0000
 41
0.0000
 70
1
  0
VERTEX
  8
16
 10
48.4460
 20
3.3610
 30
0.0000
  0
VERTEX
  8
16
 10
50.3510
 20
1.4560
 30
0.0000
 42
1.0000
  0
VERTEX
  8
16
 10
51.2490
 20
2.3540
 30
0.0000
  0
VERTEX
  8
16
 10
49.3440
 20
4.2590
 30
0.0000
 42
1.0000
  0
SEQEND
  8
0
  0
POLYLINE
  8
16
 66
1
 10
0.0000
 20
0.0000
 30
0.0000
 40
0.0000
 41
0.0000
 70
1
  0
VERTEX
  8
16
 10
48.2600
 20
14.6050
 30
0.0000
  0
VERTEX
  8
16
 10
48.2600
 20
12.0650
 30
0.0000
 42
1.0000
  0
VERTEX
  8
16
 10
49.5300
 20
12.0650
 30
0.0000
  0
VERTEX
  8
16
 10
49.5300
 20
14.6050
 30
0.0000
 42
1.0000
  0
SEQEND
  8
0
  0
POLYLINE
  8
16
 66
1
 10
0.0000
 20
0.0000
 30
0.0000
 40
0.0000
 41
0.0000
 70
1
  0
VERTEX
  8
16
 10
50.1650
 20
10.1600
 30
0.0000
  0
VERTEX
  8
16
 10
70.4850
 20
10.1600
 30
0.0000
 42
1.0000
  0
VERTEX
  8
16
 10
70.4850
 20
11.4300
 30
0.0000
  0
VERTEX
  8
16
 10
50.1650
 20
11.4300
 30
0.0000
 42
1.0000
  0
SEQEND
  8
0
  0
POLYLINE
  8
16
 66
1
 10
0.0000
 20
0.0000
 30
0.0000
 40
0.0000
 41
0.0000
 70
1
  0
VERTEX
  8
16
 10
70.0360
 20
10.3460
 30
0.0000
  0
VERTEX
  8
16
 10
71.3060
 20
9.0760
 30
0.0000
 42
1.0000
  0
VERTEX
  8
16
 10
72.2040
 20
9.9740
 30
0.0000
  0
VERTEX
  8
16
 10
70.9340
 20
11.2440
 30
0.0000
 42
1.0000
  0
SEQEND
  8
0
  0
POLYLINE
  8
16
 66
1
 10
0.0000
 20
0.0000
 30
0.0000
 40
0.0000
 41
0.0000
 70
1
  0
VERTEX
  8
16
 10
71.1200
 20
9.5250
 30
0.0000
  0
VERTEX
  8
16
 10
71.1200
 20
1.9050
 30
0.0000
 42
1.0000
  0
VERTEX
  8
16
 10
72.3900
 20
1.9050
 30
0.0000
  0
VERTEX
  8
16
 10
72.3900
 20
9.5250
 30
0.0000
 42
1.0000
  0
SEQEND
  8
0
  0
POLYLINE
  8
16
 66
1
 10
0.0000
 20
0.0000
 30
0.0000
 40
0.0000
 41
0.0000
 70
1
  0
VERTEX
  8
16
 10
48.4460
 20
11.6160
 30
0.0000
  0
VERTEX
  8
16
 10
49.7160
 20
10.3460
 30
0.0000
 42
1.0000
  0
VERTEX
  8
16
 10
50.6140
 20
11.2440
 30
0.0000
  0
VERTEX
  8
16
 10
49.3440
 20
12.5140
 30
0.0000
 42
1.0000
  0
SEQEND
  8
0
  0
POLYLINE
  8
16
 66
1
 10
0.0000
 20
0.0000
 30
0.0000
 40
0.0000
 41
0.0000
 70
1
  0
VERTEX
  8
16
 10
48.2600
 20
22.8600
 30
0.0000
  0
VERTEX
  8
16
 10
48.2600
 20
20.9550
 30
0.0000
 42
1.0000
  0
VERTEX
  8
16
 10
49.5300
 20
20.9550
 30
0.0000
  0
VERTEX
  8
16
 10
49.5300
 20
22.8600
 30
0.0000
 42
1.0000
  0
SEQEND
  8
0
  0
POLYLINE
  8
16
 66
1
 10
0.0000
 20
0.0000
 30
0.0000
 40
0.0000
 41
0.0000
 70
1
  0
VERTEX
  8
16
 10
48.4460
 20
20.5060
 30
0.0000
  0
VERTEX
  8
16
 10
49.7160
 20
19.2360
 30
0.0000
 42
1.0000
  0
VERTEX
  8
16
 10
50.6140
 20
20.1340
 30
0.0000
  0
VERTEX
  8
16
 10
49.3440
 20
21.4040
 30
0.0000
 42
1.0000
  0
SEQEND
  8
0
  0
POLYLINE
  8
16
 66
1
 10
0.0000
 20
0.0000
 30
0.0000
 40
0.0000
 41
0.0000
 70
1
  0
VERTEX
  8
16
 10
50.1650
 20
19.0500
 30
0.0000
  0
VERTEX
  8
16
 10
72.3900
 20
19.0500
 30
0.0000
 42
1.0000
  0
VERTEX
  8
16
 10
72.3900
 20
20.3200
 30
0.0000
  0
VERTEX
  8
16
 10
50.1650
 20
20.3200
 30
0.0000
 42
1.0000
  0
SEQEND
  8
0
  0
POLYLINE
  8
16
 66
1
 10
0.0000
 20
0.0000
 30
0.0000
 40
0.0000
 41
0.0000
 70
1
  0
VERTEX
  8
16
 10
71.9410
 20
19.2360
 30
0.0000
  0
VERTEX
  8
16
 10
73.8460
 20
17.3310
 30
0.0000
 42
1.0000
  0
VERTEX
  8
16
 10
74.7440
 20
18.2290
 30
0.0000
  0
VERTEX
  8
16
 10
72.8390
 20
20.1340
 30
0.0000
 42
1.0000
  0
SEQEND
  8
0
  0
POLYLINE
  8
16
 66
1
 10
0.0000
 20
0.0000
 30
0.0000
 40
0.0000
 41
0.0000
 70
1
  0
VERTEX
  8
16
 10
73.6600
 20
17.7800
 30
0.0000
  0
VERTEX
  8
16
 10
73.6600
 20
1.9050
 30
0.0000
 42
1.0000
  0
VERTEX
  8
16
 10
74.9300
 20
1.9050
 30
0.0000
  0
VERTEX
  8
16
 10
74.9300
 20
17.7800
 30
0.0000
 42
1.0000
  0
SEQEND
  8
0
  0
POLYLINE
  8
16
 66
1
 10
0.0000
 20
0.0000
 30
0.0000
 40
0.0000
 41
0.0000
 70
1
  0
VERTEX
  8
16
 10
3.8100
 20
2.5400
 30
0.0000
  0
VERTEX
  8
16
 10
3.8100
 20
4.4450
 30
0.0000
 42
1.0000
  0
VERTEX
  8
16
 10
2.5400
 20
4.4450
 30
0.0000
  0
VERTEX
  8
16
 10
2.5400
 20
2.5400
 30
0.0000
 42
1.0000
  0
SEQEND
  8
0
  0
POLYLINE
  8
16
 66
1
 10
0.0000
 20
0.0000
 30
0.0000
 40
0.0000
 41
0.0000
 70
1
  0
VERTEX
  8
16
 10
3.6240
 20
3.9960
 30
0.0000
  0
VERTEX
  8
16
 10
4.2590
 20
4.6310
 30
0.0000
 42
1.0000
  0
VERTEX
  8
16
 10
3.3610
 20
5.5290
 30
0.0000
  0
VERTEX
  8
16
 10
2.7260
 20
4.8940
 30
0.0000
 42
1.0000
  0
SEQEND
  8
0
  0
POLYLINE
  8
16
 66
1
 10
0.0000
 20
0.0000
 30
0.0000
 40
0.0000
 41
0.0000
 70
1
  0
VERTEX
  8
16
 10
3.8100
 20
4.4450
 30
0.0000
  0
VERTEX
  8
16
 10
22.2250
 20
4.4450
 30
0.0000
 42
1.0000
  0
VERTEX
  8
16
 10
22.2250
 20
5.7150
 30
0.0000
  0
VERTEX
  8
16
 10
3.8100
 20
5.7150
 30
0.0000
 42
1.0000
  0
SEQEND
  8
0
  0
POLYLINE
  8
16
 66
1
 10
0.0000
 20
0.0000
 30
0.0000
 40
0.0000
 41
0.0000
 70
1
  0
VERTEX
  8
16
 10
22.6740
 20
4.6310
 30
0.0000
  0
VERTEX
  8
16
 10
23.9440
 20
5.9010
 30
0.0000
 42
1.0000
  0
VERTEX
  8
16
 10
23.0460
 20
6.7990
 30
0.0000
  0
VERTEX
  8
16
 10
21.7760
 20
5.5290
 30
0.0000
 42
1.0000
  0
SEQEND
  8
0
  0
POLYLINE
  8
16
 66
1
 10
0.0000
 20
0.0000
 30
0.0000
 40
0.0000
 41
0.0000
 70
1
  0
VERTEX
  8
16
 10
2.5400
 20
11.4300
 30
0.0000
  0
VERTEX
  8
16
 10
2.5400
 20
10.1600
 30
0.0000
 42
1.0000
  0
VERTEX
  8
16
 10
3.8100
 20
10.1600
 30
0.0000
  0
VERTEX
  8
16
 10
3.8100
 20
11.4300
 30
0.0000
 42
1.0000
  0
SEQEND
  8
0
  0
POLYLINE
  8
16
 66
1
 10
0.0000
 20
0.0000
 30
0.0000
 40
0.0000
 41
0.0000
 70
1
  0
VERTEX
  8
16
 10
2.7260
 20
9.7110
 30
0.0000
  0
VERTEX
  8
16
 10
3.9960
 20
8.4410
 30
0.0000
 42
1.0000
  0
VERTEX
  8
16
 10
4.8940
 20
9.3390
 30
0.0000
  0
VERTEX
  8
16
 10
3.6240
 20
10.6090
 30
0.0000
 42
1.0000
  0
SEQEND
  8
0
  0
POLYLINE
  8
16
 66
1
 10
0.0000
 20
0.0000
 30
0.0000
 40
0.0000
 41
0.0000
 70
1
  0
VERTEX
  8
16
 10
4.4450
 20
8.2550
 30
0.0000
  0
VERTEX
  8
16
 10
25.4000
 20
8.2550
 30
0.0000
 42
1.0000
  0
VERTEX
  8
16
 10
25.4000
 20
9.5250
 30
0.0000
  0
VERTEX
  8
16
 10
4.4450
 20
9.5250
 30
0.0000
 42
1.0000
  0
SEQEND
  8
0
  0
POLYLINE
  8
16
 66
1
 10
0.0000
 20
0.0000
 30
0.0000
 40
0.0000
 41
0.0000
 70
1
  0
VERTEX
  8
16
 10
24.9510
 20
8.4410
 30
0.0000
  0
VERTEX
  8
16
 10
25.5860
 20
7.8060
 30
0.0000
 42
1.0000
  0
VERTEX
  8
16
 10
26.4840
 20
8.7040
 30
0.0000
  0
VERTEX
  8
16
 10
25.8490
 20
9.3390
 30
0.0000
 42
1.0000
  0
SEQEND
  8
0
  0
POLYLINE
  8
16
 66
1
 10
0.0000
 20
0.0000
 30
0.0000
 40
0.0000
 41
0.0000
 70
1
  0
VERTEX
  8
16
 10
25.4000
 20
8.2550
 30
0.0000
  0
VERTEX
  8
16
 10
25.4000
 20
6.3500
 30
0.0000
 42
1.0000
  0
VERTEX
  8
16
 10
26.6700
 20
6.3500
 30
0.0000
  0
VERTEX
  8
16
 10
26.6700
 20
8.2550
 30
0.0000
 42
1.0000
  0
SEQEND
  8
0
  0
POLYLINE
  8
16
 66
1
 10
0.0000
 20
0.0000
 30
0.0000
 40
0.0000
 41
0.0000
 70
1
  0
VERTEX
  8
16
 10
2.5400
 20
19.0500
 30
0.0000
  0
VERTEX
  8
16
 10
2.5400
 20
17.1450
 30
0.0000
 42
1.0000
  0
VERTEX
  8
16
 10
3.8100
 20
17.1450
 30
0.0000
  0
VERTEX
  8
16
 10
3.8100
 20
19.0500
 30
0.0000
 42
1.0000
  0
SEQEND
  8
0
  0
POLYLINE
  8
16
 66
1
 10
0.0000
 20
0.0000
 30
0.0000
 40
0.0000
 41
0.0000
 70
1
  0
VERTEX
  8
16
 10
4.4450
 20
15.2400
 30
0.0000
  0
VERTEX
  8
16
 10
26.6700
 20
15.2400
 30
0.0000
 42
1.0000
  0
VERTEX
  8
16
 10
26.6700
 20
16.5100
 30
0.0000
  0
VERTEX
  8
16
 10
4.4450
 20
16.5100
 30
0.0000
 42
1.0000
  0
SEQEND
  8
0
  0
POLYLINE
  8
16
 66
1
 10
0.0000
 20
0.0000
 30
0.0000
 40
0.0000
 41
0.0000
 70
1
  0
VERTEX
  8
16
 10
26.2210
 20
15.4260
 30
0.0000
  0
VERTEX
  8
16
 10
28.1260
 20
13.5210
 30
0.0000
 42
1.0000
  0
VERTEX
  8
16
 10
29.0240
 20
14.4190
 30
0.0000
  0
VERTEX
  8
16
 10
27.1190
 20
16.3240
 30
0.0000
 42
1.0000
  0
SEQEND
  8
0
  0
POLYLINE
  8
16
 66
1
 10
0.0000
 20
0.0000
 30
0.0000
 40
0.0000
 41
0.0000
 70
1
  0
VERTEX
  8
16
 10
27.9400
 20
13.9700
 30
0.0000
  0
VERTEX
  8
16
 10
27.9400
 20
6.3500
 30
0.0000
 42
1.0000
  0
VERTEX
  8
16
 10
29.2100
 20
6.3500
 30
0.0000
  0
VERTEX
  8
16
 10
29.2100
 20
13.9700
 30
0.0000
 42
1.0000
  0
SEQEND
  8
0
  0
POLYLINE
  8
16
 66
1
 10
0.0000
 20
0.0000
 30
0.0000
 40
0.0000
 41
0.0000
 70
1
  0
VERTEX
  8
16
 10
2.7260
 20
16.6960
 30
0.0000
  0
VERTEX
  8
16
 10
3.9960
 20
15.4260
 30
0.0000
 42
1.0000
  0
VERTEX
  8
16
 10
4.8940
 20
16.3240
 30
0.0000
  0
VERTEX
  8
16
 10
3.6240
 20
17.5940
 30
0.0000
 42
1.0000
  0
SEQEND
  8
0
  0
POLYLINE
  8
16
 66
1
 10
0.0000
 20
0.0000
 30
0.0000
 40
0.0000
 41
0.0000
 70
1
  0
VERTEX
  8
16
 10
3.8100
 20
26.6700
 30
0.0000
  0
VERTEX
  8
16
 10
3.8100
 20
27.9400
 30
0.0000
 42
1.0000
  0
VERTEX
  8
16
 10
2.5400
 20
27.9400
 30
0.0000
  0
VERTEX
  8
16
 10
2.5400
 20
26.6700
 30
0.0000
 42
1.0000
  0
SEQEND
  8
0
  0
POLYLINE
  8
16
 66
1
 10
0.0000
 20
0.0000
 30
0.0000
 40
0.0000
 41
0.0000
 70
1
  0
VERTEX
  8
16
 10
3.6240
 20
27.4910
 30
0.0000
  0
VERTEX
  8
16
 10
4.8940
 20
28.7610
 30
0.0000
 42
1.0000
  0
VERTEX
  8
16
 10
3.9960
 20
29.6590
 30
0.0000
  0
VERTEX
  8
16
 10
2.7260
 20
28.3890
 30
0.0000
 42
1.0000
  0
SEQEND
  8
0
  0
POLYLINE
  8
16
 66
1
 10
0.0000
 20
0.0000
 30
0.0000
 40
0.0000
 41
0.0000
 70
1
  0
VERTEX
  8
16
 10
4.4450
 20
28.5750
 30
0.0000
  0
VERTEX
  8
16
 10
29.2100
 20
28.5750
 30
0.0000
 42
1.0000
  0
VERTEX
  8
16
 10
29.2100
 20
29.8450
 30
0.0000
  0
VERTEX
  8
16
 10
4.4450
 20
29.8450
 30
0.0000
 42
1.0000
  0
SEQEND
  8
0
  0
POLYLINE
  8
16
 66
1
 10
0.0000
 20
0.0000
 30
0.0000
 40
0.0000
 41
0.0000
 70
1
  0
VERTEX
  8
16
 10
28.7610
 20
28.7610
 30
0.0000
  0
VERTEX
  8
16
 10
30.6660
 20
26.8560
 30
0.0000
 42
1.0000
  0
VERTEX
  8
16
 10
31.5640
 20
27.7540
 30
0.0000
  0
VERTEX
  8
16
 10
29.6590
 20
29.6590
 30
0.0000
 42
1.0000
  0
SEQEND
  8
0
  0
POLYLINE
  8
16
 66
1
 10
0.0000
 20
0.0000
 30
0.0000
 40
0.0000
 41
0.0000
 70
1
  0
VERTEX
  8
16
 10
30.4800
 20
27.3050
 30
0.0000
  0
VERTEX
  8
16
 10
30.4800
 20
6.3500
 30
0.0000
 42
1.0000
  0
VERTEX
  8
16
 10
31.7500
 20
6.3500
 30
0.0000
  0
VERTEX
  8
16
 10
31.7500
 20
27.3050
 30
0.0000
 42
1.0000
  0
SEQEND
  8
0
  0
POLYLINE
  8
16
 66
1
 10
0.0000
 20
0.0000
 30
0.0000
 40
0.0000
 41
0.0000
 70
1
  0
VERTEX
  8
16
 10
90.8050
 20
22.8600
 30
0.0000
  0
VERTEX
  8
16
 10
90.8050
 20
14.6050
 30
0.0000
 42
1.0000
  0
VERTEX
  8
16
 10
92.0750
 20
14.6050
 30
0.0000
  0
VERTEX
  8
16
 10
92.0750
 20
22.8600
 30
0.0000
 42
1.0000
  0
SEQEND
  8
0
  0
POLYLINE
  8
16
 66
1
 10
0.0000
 20
0.0000
 30
0.0000
 40
0.0000
 41
0.0000
 70
1
  0
VERTEX
  8
16
 10
90.8050
 20
14.6050
 30
0.0000
  0
VERTEX
  8
16
 10
90.8050
 20
6.3500
 30
0.0000
 42
1.0000
  0
VERTEX
  8
16
 10
92.0750
 20
6.3500
 30
0.0000
  0
VERTEX
  8
16
 10
92.0750
 20
14.6050
 30
0.0000
 42
1.0000
  0
SEQEND
  8
0
  0
POLYLINE
  8
16
 66
1
 10
0.0000
 20
0.0000
 30
0.0000
 40
0.0000
 41
0.0000
 70
1
  0
VERTEX
  8
16
 10
45.0850
 20
26.6700
 30
0.0000
  0
VERTEX
  8
16
 10
45.0850
 20
19.0500
 30
0.0000
 42
1.0000
  0
VERTEX
  8
16
 10
46.3550
 20
19.0500
 30
0.0000
  0
VERTEX
  8
16
 10
46.3550
 20
26.6700
 30
0.0000
 42
1.0000
  0
SEQEND
  8
0
  0
POLYLINE
  8
16
 66
1
 10
0.0000
 20
0.0000
 30
0.0000
 40
0.0000
 41
0.0000
 70
1
  0
VERTEX
  8
16
 10
45.7200
 20
19.6850
 30
0.0000
  0
VERTEX
  8
16
 10
43.1800
 20
19.6850
 30
0.0000
 42
1.0000
  0
VERTEX
  8
16
 10
43.1800
 20
18.4150
 30
0.0000
  0
VERTEX
  8
16
 10
45.7200
 20
18.4150
 30
0.0000
 42
1.0000
  0
SEQEND
  8
0
  0
POLYLINE
  8
16
 66
1
 10
0.0000
 20
0.0000
 30
0.0000
 40
0.0000
 41
0.0000
 70
1
  0
VERTEX
  8
16
 10
42.7310
 20
19.4990
 30
0.0000
  0
VERTEX
  8
16
 10
40.8260
 20
17.5940
 30
0.0000
 42
1.0000
  0
VERTEX
  8
16
 10
41.7240
 20
16.6960
 30
0.0000
  0
VERTEX
  8
16
 10
43.6290
 20
18.6010
 30
0.0000
 42
1.0000
  0
SEQEND
  8
0
  0
POLYLINE
  8
16
 66
1
 10
0.0000
 20
0.0000
 30
0.0000
 40
0.0000
 41
0.0000
 70
1
  0
VERTEX
  8
16
 10
40.6400
 20
17.1450
 30
0.0000
  0
VERTEX
  8
16
 10
40.6400
 20
13.3350
 30
0.0000
 42
1.0000
  0
VERTEX
  8
16
 10
41.9100
 20
13.3350
 30
0.0000
  0
VERTEX
  8
16
 10
41.9100
 20
17.1450
 30
0.0000
 42
1.0000
  0
SEQEND
  8
0
  0
POLYLINE
  8
16
 66
1
 10
0.0000
 20
0.0000
 30
0.0000
 40
0.0000
 41
0.0000
 70
1
  0
VERTEX
  8
16
 10
40.8260
 20
12.8860
 30
0.0000
  0
VERTEX
  8
16
 10
42.7310
 20
10.9810
 30
0.0000
 42
1.0000
  0
VERTEX
  8
16
 10
43.6290
 20
11.8790
 30
0.0000
  0
VERTEX
  8
16
 10
41.7240
 20
13.7840
 30
0.0000
 42
1.0000
  0
SEQEND
  8
0
  0
POLYLINE
  8
16
 66
1
 10
0.0000
 20
0.0000
 30
0.0000
 40
0.0000
 41
0.0000
 70
1
  0
VERTEX
  8
16
 10
43.1800
 20
10.7950
 30
0.0000
  0
VERTEX
  8
16
 10
45.7200
 20
10.7950
 30
0.0000
 42
1.0000
  0
VERTEX
  8
16
 10
45.7200
 20
12.0650
 30
0.0000
  0
VERTEX
  8
16
 10
43.1800
 20
12.0650
 30
0.0000
 42
1.0000
  0
SEQEND
  8
0
  0
POLYLINE
  8
16
 66
1
 10
0.0000
 20
0.0000
 30
0.0000
 40
0.0000
 41
0.0000
 70
1
  0
VERTEX
  8
16
 10
45.0850
 20
11.4300
 30
0.0000
  0
VERTEX
  8
16
 10
45.0850
 20
2.5400
 30
0.0000
 42
1.0000
  0
VERTEX
  8
16
 10
46.3550
 20
2.5400
 30
0.0000
  0
VERTEX
  8
16
 10
46.3550
 20
11.4300
 30
0.0000
 42
1.0000
  0
SEQEND
  8
0
  0
POLYLINE
  8
16
 66
1
 10
0.0000
 20
0.0000
 30
0.0000
 40
0.0000
 41
0.0000
 70
1
  0
VERTEX
  8
16
 10
45.7200
 20
26.0350
 30
0.0000
  0
VERTEX
  8
16
 10
87.6300
 20
26.0350
 30
0.0000
 42
1.0000
  0
VERTEX
  8
16
 10
87.6300
 20
27.3050
 30
0.0000
  0
VERTEX
  8
16
 10
45.7200
 20
27.3050
 30
0.0000
 42
1.0000
  0
SEQEND
  8
0
  0
POLYLINE
  8
16
 66
1
 10
0.0000
 20
0.0000
 30
0.0000
 40
0.0000
 41
0.0000
 70
1
  0
VERTEX
  8
16
 10
87.1810
 20
26.2210
 30
0.0000
  0
VERTEX
  8
16
 10
90.9910
 20
22.4110
 30
0.0000
 42
1.0000
  0
VERTEX
  8
16
 10
91.8890
 20
23.3090
 30
0.0000
  0
VERTEX
  8
16
 10
88.0790
 20
27.1190
 30
0.0000
 42
1.0000
  0
SEQEND
  8
0
  0
POLYLINE
  8
16
 66
1
 10
0.0000
 20
0.0000
 30
0.0000
 40
0.0000
 41
0.0000
 70
1
  0
VERTEX
  8
16
 10
90.9910
 20
6.7990
 30
0.0000
  0
VERTEX
  8
16
 10
86.5460
 20
2.3540
 30
0.0000
 42
1.0000
  0
VERTEX
  8
16
 10
87.4440
 20
1.4560
 30
0.0000
  0
VERTEX
  8
16
 10
91.8890
 20
5.9010
 30
0.0000
 42
1.0000
  0
SEQEND
  8
0
  0
POLYLINE
  8
16
 66
1
 10
0.0000
 20
0.0000
 30
0.0000
 40
0.0000
 41
0.0000
 70
1
  0
VERTEX
  8
16
 10
86.9950
 20
2.5400
 30
0.0000
  0
VERTEX
  8
16
 10
85.0900
 20
2.5400
 30
0.0000
 42
1.0000
  0
VERTEX
  8
16
 10
85.0900
 20
1.2700
 30
0.0000
  0
VERTEX
  8
16
 10
86.9950
 20
1.2700
 30
0.0000
 42
1.0000
  0
SEQEND
  8
0
  0
ENDSEC
  0
EOF
